<svg width="119" height="72" viewBox="0 0 119 72" fill="none" xmlns="http://www.w3.org/2000/svg">
<path d="M113.75 35.383C93.6554 28.052 82.4817 41.1333 59.2333 44.4538C72.3241 46.3235 89.2462 45.0969 113.75 35.383Z" fill="#F5F5F5"/>
<path d="M5 44.3912C36.2123 33.0024 45.9029 70.8646 112.741 44.8999C113.128 44.7496 113.456 44.5131 113.685 44.2177C113.915 43.9222 114.037 43.58 114.037 43.2305V38.0543C53.3315 62.1174 39.1518 34.0907 14.467 35.9443C11.8797 36.1379 9.47454 37.1115 7.72318 38.6742C5.97183 40.2368 5.00063 42.2757 5 44.3912Z" fill="#E1F701"/>
<path d="M5 48.2275V53.3387C35.2391 42.3067 45.2765 77.4997 106.655 56.093C108.843 55.3325 110.709 54.0658 112.022 52.4498C113.334 50.8339 114.035 48.9399 114.037 47.0027C47.0712 73.5479 36.7218 36.7047 6.43263 46.5092C6.01011 46.6461 5.64773 46.883 5.39234 47.1893C5.13694 47.4956 5.00027 47.8573 5 48.2275Z" fill="#E1F701"/>
<path d="M5.28705 56.1915C25.3779 48.8606 36.5534 61.9418 59.8015 65.263C46.7077 67.1317 29.7889 65.9054 5.28705 56.1915Z" fill="#F5F5F5"/>
<path d="M17.3246 25.18C16.4946 25.18 15.6896 25.07 14.9096 24.85C14.1396 24.62 13.5196 24.325 13.0496 23.965L13.8746 22.135C14.3246 22.465 14.8596 22.73 15.4796 22.93C16.0996 23.13 16.7196 23.23 17.3396 23.23C18.0296 23.23 18.5396 23.13 18.8696 22.93C19.1996 22.72 19.3646 22.445 19.3646 22.105C19.3646 21.855 19.2646 21.65 19.0646 21.49C18.8746 21.32 18.6246 21.185 18.3146 21.085C18.0146 20.985 17.6046 20.875 17.0846 20.755C16.2846 20.565 15.6296 20.375 15.1196 20.185C14.6096 19.995 14.1696 19.69 13.7996 19.27C13.4396 18.85 13.2596 18.29 13.2596 17.59C13.2596 16.98 13.4246 16.43 13.7546 15.94C14.0846 15.44 14.5796 15.045 15.2396 14.755C15.9096 14.465 16.7246 14.32 17.6846 14.32C18.3546 14.32 19.0096 14.4 19.6496 14.56C20.2896 14.72 20.8496 14.95 21.3296 15.25L20.5796 17.095C19.6096 16.545 18.6396 16.27 17.6696 16.27C16.9896 16.27 16.4846 16.38 16.1546 16.6C15.8346 16.82 15.6746 17.11 15.6746 17.47C15.6746 17.83 15.8596 18.1 16.2296 18.28C16.6096 18.45 17.1846 18.62 17.9546 18.79C18.7546 18.98 19.4096 19.17 19.9196 19.36C20.4296 19.55 20.8646 19.85 21.2246 20.26C21.5946 20.67 21.7796 21.225 21.7796 21.925C21.7796 22.525 21.6096 23.075 21.2696 23.575C20.9396 24.065 20.4396 24.455 19.7696 24.745C19.0996 25.035 18.2846 25.18 17.3246 25.18ZM27.1151 25.12C26.2651 25.12 25.5001 24.945 24.8201 24.595C24.1501 24.235 23.6251 23.74 23.2451 23.11C22.8651 22.48 22.6751 21.765 22.6751 20.965C22.6751 20.165 22.8651 19.45 23.2451 18.82C23.6251 18.19 24.1501 17.7 24.8201 17.35C25.5001 16.99 26.2651 16.81 27.1151 16.81C27.9651 16.81 28.7251 16.99 29.3951 17.35C30.0651 17.7 30.5901 18.19 30.9701 18.82C31.3501 19.45 31.5401 20.165 31.5401 20.965C31.5401 21.765 31.3501 22.48 30.9701 23.11C30.5901 23.74 30.0651 24.235 29.3951 24.595C28.7251 24.945 27.9651 25.12 27.1151 25.12ZM27.1151 23.2C27.7151 23.2 28.2051 23 28.5851 22.6C28.9751 22.19 29.1701 21.645 29.1701 20.965C29.1701 20.285 28.9751 19.745 28.5851 19.345C28.2051 18.935 27.7151 18.73 27.1151 18.73C26.5151 18.73 26.0201 18.935 25.6301 19.345C25.2401 19.745 25.0451 20.285 25.0451 20.965C25.0451 21.645 25.2401 22.19 25.6301 22.6C26.0201 23 26.5151 23.2 27.1151 23.2ZM41.2342 16.93V25H39.0142V24.04C38.7042 24.39 38.3342 24.66 37.9042 24.85C37.4742 25.03 37.0092 25.12 36.5092 25.12C35.4492 25.12 34.6092 24.815 33.9892 24.205C33.3692 23.595 33.0592 22.69 33.0592 21.49V16.93H35.3992V21.145C35.3992 22.445 35.9442 23.095 37.0342 23.095C37.5942 23.095 38.0442 22.915 38.3842 22.555C38.7242 22.185 38.8942 21.64 38.8942 20.92V16.93H41.2342ZM48.307 16.81C49.307 16.81 50.112 17.11 50.722 17.71C51.342 18.31 51.652 19.2 51.652 20.38V25H49.312V20.74C49.312 20.1 49.172 19.625 48.892 19.315C48.612 18.995 48.207 18.835 47.677 18.835C47.087 18.835 46.617 19.02 46.267 19.39C45.917 19.75 45.742 20.29 45.742 21.01V25H43.402V16.93H45.637V17.875C45.947 17.535 46.332 17.275 46.792 17.095C47.252 16.905 47.757 16.81 48.307 16.81ZM62.081 13.87V25H59.846V24.07C59.266 24.77 58.426 25.12 57.326 25.12C56.566 25.12 55.876 24.95 55.256 24.61C54.646 24.27 54.166 23.785 53.816 23.155C53.466 22.525 53.291 21.795 53.291 20.965C53.291 20.135 53.466 19.405 53.816 18.775C54.166 18.145 54.646 17.66 55.256 17.32C55.876 16.98 56.566 16.81 57.326 16.81C58.356 16.81 59.161 17.135 59.741 17.785V13.87H62.081ZM57.731 23.2C58.321 23.2 58.811 23 59.201 22.6C59.591 22.19 59.786 21.645 59.786 20.965C59.786 20.285 59.591 19.745 59.201 19.345C58.811 18.935 58.321 18.73 57.731 18.73C57.131 18.73 56.636 18.935 56.246 19.345C55.856 19.745 55.661 20.285 55.661 20.965C55.661 21.645 55.856 22.19 56.246 22.6C56.636 23 57.131 23.2 57.731 23.2Z" fill="#F5F5F5"/>
<path d="M77.2067 16.93L74.2817 25H72.0317L70.2167 19.99L68.3417 25H66.0917L63.1817 16.93H65.3867L67.2917 22.39L69.2717 16.93H71.2517L73.1717 22.39L75.1367 16.93H77.2067ZM81.2859 16.81C82.5359 16.81 83.4959 17.11 84.1659 17.71C84.8359 18.3 85.1709 19.195 85.1709 20.395V25H82.9809V23.995C82.5409 24.745 81.7209 25.12 80.5209 25.12C79.9009 25.12 79.3609 25.015 78.9009 24.805C78.4509 24.595 78.1059 24.305 77.8659 23.935C77.6259 23.565 77.5059 23.145 77.5059 22.675C77.5059 21.925 77.7859 21.335 78.3459 20.905C78.9159 20.475 79.7909 20.26 80.9709 20.26H82.8309C82.8309 19.75 82.6759 19.36 82.3659 19.09C82.0559 18.81 81.5909 18.67 80.9709 18.67C80.5409 18.67 80.1159 18.74 79.6959 18.88C79.2859 19.01 78.9359 19.19 78.6459 19.42L77.8059 17.785C78.2459 17.475 78.7709 17.235 79.3809 17.065C80.0009 16.895 80.6359 16.81 81.2859 16.81ZM81.1059 23.545C81.5059 23.545 81.8609 23.455 82.1709 23.275C82.4809 23.085 82.7009 22.81 82.8309 22.45V21.625H81.2259C80.2659 21.625 79.7859 21.94 79.7859 22.57C79.7859 22.87 79.9009 23.11 80.1309 23.29C80.3709 23.46 80.6959 23.545 81.1059 23.545ZM95.1522 16.93L91.7472 25H89.3322L85.9422 16.93H88.3572L90.5922 22.42L92.9022 16.93H95.1522ZM103.792 20.995C103.792 21.025 103.777 21.235 103.747 21.625H97.6424C97.7524 22.125 98.0124 22.52 98.4224 22.81C98.8324 23.1 99.3424 23.245 99.9524 23.245C100.372 23.245 100.742 23.185 101.062 23.065C101.392 22.935 101.697 22.735 101.977 22.465L103.222 23.815C102.462 24.685 101.352 25.12 99.8924 25.12C98.9824 25.12 98.1774 24.945 97.4774 24.595C96.7774 24.235 96.2374 23.74 95.8574 23.11C95.4774 22.48 95.2874 21.765 95.2874 20.965C95.2874 20.175 95.4724 19.465 95.8424 18.835C96.2224 18.195 96.7374 17.7 97.3874 17.35C98.0474 16.99 98.7824 16.81 99.5924 16.81C100.382 16.81 101.097 16.98 101.737 17.32C102.377 17.66 102.877 18.15 103.237 18.79C103.607 19.42 103.792 20.155 103.792 20.995ZM99.6074 18.58C99.0774 18.58 98.6324 18.73 98.2724 19.03C97.9124 19.33 97.6924 19.74 97.6124 20.26H101.587C101.507 19.75 101.287 19.345 100.927 19.045C100.567 18.735 100.127 18.58 99.6074 18.58Z" fill="#E1F701"/>
</svg>
