<svg xmlns="http://www.w3.org/2000/svg" viewBox="0 0 189.23 240.39"><defs><style>.cls-1{fill:#b684f7;}.cls-2{fill:#372533;}.cls-3{fill:#af969a;}.cls-4{fill:#9a8487;}.cls-5{fill:#857275;}.cls-6{fill:#e1f701;}.cls-7{fill:#aab200;}.cls-8{fill:#1e2029;}.cls-9{fill:#f6f3e9;}.cls-10{fill:#8e464a;}.cls-11{fill:#7c3d40;}.cls-12{fill:#6e3639;}.cls-13{fill:#834044;}.cls-14{fill:#db8780;}.cls-15{fill:#4b3346;}.cls-16{fill:#71373a;}</style></defs><title>Fichier 3</title><g id="Calque_2" data-name="Calque 2"><g id="OBJECTS"><path class="cls-1" d="M101.63,110.79h-.36a.77.77,0,0,0-.75.74c0,.86.11,1.71.2,2.62v.1a25,25,0,0,1,.12,5.31,9,9,0,0,1-.55,2.08,8.62,8.62,0,0,1-.85,1.45,9.77,9.77,0,0,1-1.57,1.54A12.26,12.26,0,0,1,95.52,126a8.24,8.24,0,0,1-3.43.7,9.18,9.18,0,0,1-1.16-.07,11.42,11.42,0,0,1-2.65-.74,15.1,15.1,0,0,1-3.11-1.85,21.21,21.21,0,0,1-3.58-3.63,24.39,24.39,0,0,1-3-5.06c-.2-.48-.38-1-.55-1.5a.61.61,0,0,0,0-.49l-.1-.26,0-.1c-.17-.43-.31-.8-.43-1.18a.74.74,0,0,0-.71-.54.66.66,0,0,0-.2,0,.74.74,0,0,0-.44.34.79.79,0,0,0-.08.57c0,.2.08.39.13.58a.36.36,0,0,0-.14-.15.73.73,0,0,0-.37-.1l-.2,0a.7.7,0,0,0-.44.34c-.81,1.83-1.65,3.78-2.38,5.69-.66,1.75-1.29,3.66-1.88,5.68a103.21,103.21,0,0,0-2.56,11.58c-.86,5.15-1.44,10.43-2,15.54l0,.29c-.29,2.67-.57,5.2-.9,7.74l-.28,2.13.08-.18-.28,1.65c-.2,1.47-.41,2.94-.58,4.41-.25,2.15-.47,4.24-.64,6.21-.34,3.87-.58,8.06-.71,12.45-.11,4-.1,8.06,0,12.47l0,1.67v.23c.08,3.31.17,6.29.34,9.28A90,90,0,0,0,64.66,221,52.77,52.77,0,0,0,66,226.45a28,28,0,0,0,1.78,4.6A15,15,0,0,0,70,234.32a11.91,11.91,0,0,0,2.75,2.25,16.8,16.8,0,0,0,7,2.11,44.47,44.47,0,0,0,4.52.22h1.64c1.4,0,2.87,0,4.61-.07,4.08-.12,8.28-.41,12.48-.85,1.91-.2,3.92-.45,6.15-.76l2.76-.41,2.18-.33,1-.15h.1c2.52-.37,5.06-.73,7.53-1.22a39.93,39.93,0,0,0,7.87-2.28,13.34,13.34,0,0,0,3-1.68,6.9,6.9,0,0,0,2-2.44,10.56,10.56,0,0,0,.95-3.18,21.53,21.53,0,0,0,.21-3.64,61.3,61.3,0,0,0-.65-6.64l-.1-.75c-.18-1.34-.3-2.3-.37-3.33-.15-2.25-.31-4.27-.49-6.17-.37-3.91-.87-7.91-1.52-12.23-.57-3.78-1.27-7.77-2.15-12.2-.84-4.21-1.72-8.27-2.62-12.07-1.84-7.78-4.09-15.59-6.68-23.23-1.26-3.74-2.66-7.57-4.16-11.4-.37-1-.74-1.93-1.1-2.89s-.71-1.88-1.07-2.81c-.91-2.33-1.7-4.19-2.5-5.86a39.36,39.36,0,0,0-3.24-5.73c-2.66-3.84-5.52-5.78-8.5-5.78Z"/><path class="cls-2" d="M101.27,110.82a.74.74,0,0,0-.73.72c0,.9.12,1.82.21,2.71a30.65,30.65,0,0,1,.2,4.38q3.13-.71,6.2-1.65l-.29.09q1.47-.46,2.92-1c-2.56-3.51-5.3-5.29-8.14-5.29Z"/><path class="cls-2" d="M76.66,111.38a.73.73,0,0,0-.43.33.77.77,0,0,0-.07.56c0,.21.09.43.14.64a.5.5,0,0,0-.19-.19.71.71,0,0,0-.36-.1.67.67,0,0,0-.19,0,.69.69,0,0,0-.43.33c-.81,1.85-1.65,3.77-2.38,5.69q-.43,1.15-.85,2.38c3.18.09,6.37.09,9.55,0l.56,0-.43-.54a24.2,24.2,0,0,1-3-5.07c-.2-.48-.38-1-.55-1.5a.64.64,0,0,0,0-.49l-.1-.26c-.17-.42-.34-.84-.47-1.28a.73.73,0,0,0-.69-.53.69.69,0,0,0-.19,0Z"/><path class="cls-2" d="M105.37,120q-2.43.67-4.87,1.2c-.06.17-.12.33-.18.5a8.35,8.35,0,0,1-.85,1.46,10.09,10.09,0,0,1-1.58,1.55,12.15,12.15,0,0,1-2.36,1.41,10.06,10.06,0,0,1-2.29.64,9.92,9.92,0,0,1-1.14.07,9.43,9.43,0,0,1-1.17-.07,11.39,11.39,0,0,1-2.66-.74,15.16,15.16,0,0,1-3.12-1.85c-.34-.27-.67-.54-1-.84-4.33.24-8.68.26-13,.12l-.28,1a102.7,102.7,0,0,0-2.55,11.57q-.36,2.14-.65,4.31a139.28,139.28,0,0,0,16.09.41,105.61,105.61,0,0,0,27.19-4.36h0c2.38-.75,4.73-1.61,7-2.58-.35-.91-.7-1.83-1-2.74s-.71-1.88-1.07-2.81c-.88-2.27-1.68-4.13-2.5-5.86a44.51,44.51,0,0,0-2.23-4.18c-1.89.69-3.81,1.3-5.75,1.84Z"/><path class="cls-2" d="M99.17,141.48a120.8,120.8,0,0,1-18.84,1.59q-6.49.06-13-.49c-.38,3-.72,6-1,9-.29,2.65-.58,5.31-.92,8l-.28,2.13,0-.19-.24,1.65q-.15,1.1-.3,2.19a139,139,0,0,0,21,.89,128.16,128.16,0,0,0,33-5.51l-.3.09q4-1.23,7.82-2.73c-1.21-4.28-2.53-8.54-4-12.77-1-3.06-2.16-6.19-3.36-9.34a88,88,0,0,1-19.65,5.56Z"/><path class="cls-2" d="M100.36,167.21a137.57,137.57,0,0,1-36.05.43c-.24,2-.45,4.05-.63,6.08-.35,3.94-.58,8.13-.71,12.45-.06,2.4-.09,4.84-.08,7.37q1.41.4,2.84.75l.15,0h0a94.52,94.52,0,0,0,24.42,2.11,128.8,128.8,0,0,0,33-5.64l-.14,0c3.23-1,6.42-2.13,9.55-3.41-.38-2.2-.81-4.49-1.28-6.89-.81-4.11-1.69-8.17-2.62-12.06q-1-4.07-2.08-8.16a122.18,122.18,0,0,1-26.42,6.89Zm23.14,23.54-.15,0,.15,0Z"/><path class="cls-2" d="M125,192.73a130.19,130.19,0,0,1-34.91,6.06A102.21,102.21,0,0,1,73.19,198a79,79,0,0,1-10.27-2q0,1.3.06,2.64l0,1.67c.08,3.12.16,6.34.35,9.51A89.84,89.84,0,0,0,64.68,221c.3,1.58.67,3.16,1.11,4.7a211.34,211.34,0,0,0,28.59,1.11A153.35,153.35,0,0,0,113,225.06a133.5,133.5,0,0,0,18.36-4.27h0Q134,220,136.57,219c-.13-1.3-.3-2.6-.48-3.87l-.09-.68c-.16-1.18-.3-2.25-.37-3.33-.14-2.2-.3-4.22-.49-6.17-.36-3.87-.86-7.87-1.52-12.23q-.22-1.44-.46-2.92c-2.68,1.07-5.4,2-8.14,2.9Z"/><path class="cls-2" d="M118.82,226.41A146.55,146.55,0,0,1,99.19,229a203.87,203.87,0,0,1-32.62-.77A24.7,24.7,0,0,0,67.78,231,15.11,15.11,0,0,0,70,234.3a11.87,11.87,0,0,0,2.74,2.25,16.82,16.82,0,0,0,7,2.1,43.11,43.11,0,0,0,4.51.22h1.64c1.46,0,3,0,4.61-.07,4-.12,8.21-.4,12.48-.85,1.93-.2,3.94-.46,6.15-.76l2.76-.41,2.18-.33,1-.15c2.5-.36,5.1-.74,7.62-1.24a39.71,39.71,0,0,0,7.86-2.27,13.32,13.32,0,0,0,3-1.68,6.84,6.84,0,0,0,2-2.43,10.53,10.53,0,0,0,.94-3.17,20.89,20.89,0,0,0,.2-3.64q0-.2,0-.39a131.17,131.17,0,0,1-17.92,4.94Z"/><path class="cls-1" d="M137.88,101.48a18.46,18.46,0,0,0-3.31.31,20.77,20.77,0,0,0-3,.8,27.54,27.54,0,0,0-3.2,1.4h0l.1,0a44.57,44.57,0,0,1-9.9,3.73,29,29,0,0,1-4.11.53c-.49,0-1,0-1.47,0-.69,0-1.37,0-2.06,0l-1.4,0h-.8c-1.39,0-2.76.06-4.08.18h-.32a11,11,0,0,0-3.5.45,11.72,11.72,0,0,0-1.77.52.73.73,0,0,0-.45.91.75.75,0,0,0,.49.46.92.92,0,0,0,.16.14l.64.47a23.32,23.32,0,0,1,4,4.06l-.08-.17a55.53,55.53,0,0,1,6.54,11.95l0-.18c1.18,2.9,2.23,5.78,3,8l.84,2.37.46,1.3.58,1.61.15.42c.24.66.48,1.33.71,2a166.2,166.2,0,0,1,5.9,22.4c1.22,6.18,2.2,12.48,3,17.84q.4,2.69.79,5.37L126,190l.26,1.79c.15,1,.3,2.07.46,3.11l.1.65c.26,1.76.52,3.53.76,5.29l0-.18c1.37,10.48,1.94,21.23,2.49,31.63v.15l0,.82a.84.84,0,0,0,.12.39.74.74,0,0,0,.72.57,19.8,19.8,0,0,0,3.65-.45,29.19,29.19,0,0,0,3.89-1.11,30.61,30.61,0,0,0,3.76-1.64,18.58,18.58,0,0,0,3.06-2,.79.79,0,0,0,.32-.44.77.77,0,0,0,0-.42c-.71-7.28-1.73-15-3-22.79-1.2-7.25-2.66-14.88-4.34-22.66a277.91,277.91,0,0,0-12.69-42.88l-.22-.57-.14-.36a30.1,30.1,0,0,0,3,1.37,35,35,0,0,0,12.57,2.39q.84,0,1.69,0a27.46,27.46,0,0,0,6.24-1.05,20,20,0,0,0,5.54-2.54,14.77,14.77,0,0,0,2.29-1.89,12.46,12.46,0,0,0,1.8-2.32,11.59,11.59,0,0,0,1.19-2.75,12.41,12.41,0,0,0,.46-3.18,23.79,23.79,0,0,0-.16-3.23,32.74,32.74,0,0,0-2.48-9.35,28.18,28.18,0,0,0-7.27-10.11,19.21,19.21,0,0,0-9.79-4.58,17.12,17.12,0,0,0-2.38-.17Z"/><path class="cls-3" d="M78.31,114.27a.26.26,0,0,0-.23.28,17.54,17.54,0,0,1,.16,2.92v-.07c0,1.33-.17,2.66-.21,4a.36.36,0,0,0,.06.24.31.31,0,0,0,.21.12.32.32,0,0,0,.24-.06.32.32,0,0,0,.12-.21c0-1.15.11-2.31.14-3.46,0-.57,0-1.13,0-1.7a16,16,0,0,0-.2-1.83.26.26,0,0,0-.25-.23Z"/><path class="cls-3" d="M78.18,112.64a1,1,0,0,0-.64.36.91.91,0,0,0-.2.68,18,18,0,0,1,.29,2.31c.06.78.08,1.55.19,2.33a1,1,0,1,0,1.94-.21c0-.36-.06-.73-.09-1.09s0-.79-.05-1.18-.07-.82-.13-1.22a5.08,5.08,0,0,0-.29-1.22v0l0-.13a.94.94,0,0,0-.87-.59Z"/><path class="cls-4" d="M134.57,101.76a20.78,20.78,0,0,0-3,.81,26.33,26.33,0,0,0-3.2,1.39h.12a45.9,45.9,0,0,1-9.91,3.69,28.54,28.54,0,0,1-4.1.53c-.49,0-1,0-1.47,0l-1.75,0h-.3l-1.4,0h-.81c-1.37,0-2.75.06-4.08.17h-.32a10.86,10.86,0,0,0-3.51.46,10.42,10.42,0,0,0-1.77.52.74.74,0,0,0-.46.94.73.73,0,0,0,.5.46.65.65,0,0,0,.15.14l.64.47q.4.31.79.66a29.72,29.72,0,0,1,3.62,1.49,47.69,47.69,0,0,1,6.29,3.77c2,1.43,4,3,6,4.49s3.71,2.88,5.64,4.22l0,0a63.82,63.82,0,0,0,6.89,4.11,65.91,65.91,0,0,0,7.93,3.47l-.06,0a47.92,47.92,0,0,0,11.71,2.71h-.06a32,32,0,0,0,4,.13,27.67,27.67,0,0,0,3.68-.36h0c.55-.1,1.11-.21,1.65-.34q.24-.35.47-.73a11.38,11.38,0,0,0,1.18-2.75,12.27,12.27,0,0,0,.47-3.19,25.32,25.32,0,0,0-.16-3.23c-.11-1-.28-2-.53-3.24a31.79,31.79,0,0,0-2-6.12,28.13,28.13,0,0,0-7.27-10.12,19.28,19.28,0,0,0-9.81-4.59,18.77,18.77,0,0,0-2.38-.17,18.54,18.54,0,0,0-3.31.31Z"/><path class="cls-5" d="M137,117.48a.86.86,0,0,0-.58.29.85.85,0,0,0-.21.61.82.82,0,0,0,.29.58c1.44,1.08,2.87,2.18,4.24,3.35.71.61,1.4,1.24,2.08,1.89s1.39,1.37,2,2.11l0,0a17.4,17.4,0,0,1,2.4,3.44,9.61,9.61,0,0,1,.65,1.77.3.3,0,1,0,.57-.19,17.81,17.81,0,0,0-1.5-4,19.53,19.53,0,0,0-2.57-3.69,38.8,38.8,0,0,0-6.76-5.94.94.94,0,0,0-.56-.21Zm10.24,12.26,0,0,0,0Z"/><path class="cls-5" d="M120.4,129.71a.24.24,0,0,0-.12.31,88,88,0,0,1,6.88,15.37c.95,2.67,1.81,5.37,2.66,8.07s1.73,5.54,2.55,8.32l.1.36,0-.14q2.19,7.48,4,15,.91,3.79,1.72,7.59.41,1.89.78,3.8c.26,1.3.49,2.61.75,3.91a.24.24,0,0,0,.47-.07c-.29-1.48-.56-3-.86-4.45l-.91-4.53c-.61-3-1.24-6-1.89-9.06s-1.36-6-2.13-9-1.59-5.83-2.49-8.72c-1.45-4.62-3-9.19-4.85-13.69a97,97,0,0,0-6.33-13,.26.26,0,0,0-.22-.14l-.09,0Z"/><path class="cls-5" d="M104.65,107.74a15,15,0,0,0-6.13,1.7.43.43,0,1,0,.43.75,10.1,10.1,0,0,1,.92-.44h0A14.08,14.08,0,0,1,103,109a30.09,30.09,0,0,1,4-.22c.66,0,1.31,0,2,.06s1.26.07,1.88.13a.41.41,0,0,0,.36-.62.39.39,0,0,0-.25-.19c-1-.14-2-.28-3-.36-.61,0-1.22-.07-1.83-.07s-.93,0-1.4,0ZM103.1,109h0Z"/><path class="cls-2" d="M114.88,30.19a.73.73,0,0,0-.71.67.7.7,0,0,0-.24.24,8,8,0,0,0-.7,1.48,7.45,7.45,0,0,0-.34,1.61.65.65,0,0,0,.15.44.72.72,0,0,0,.66.44h.23l27.74.33h1.11l-.08,6-.07,6a.61.61,0,0,0-.31.17.78.78,0,0,0-.21.58.6.6,0,0,0,.21.44,11,11,0,0,0,2.38,1.53,9.69,9.69,0,0,0,1.33.5,9,9,0,0,0,1.48.28.71.71,0,0,0,.36.1.73.73,0,0,0,.72-.72l0-2.87.19-16.15a.73.73,0,0,0-.72-.72l-16.21-.19-16.18-.19h-.81Z"/><path class="cls-6" d="M171.26,45.58a.76.76,0,0,0-.43.15.74.74,0,0,0-.3.49.68.68,0,0,0,.05.39c-2.78,5-4.27,10.44-5.72,15.74-1.67,6.11-3.59,12.42-5.13,17.48l-.05.17-.09.27-.14.44-.06.18C157.74,86.38,156,92,154.47,97.64c-.91,3.27-1.67,6.18-2.32,8.89a61.69,61.69,0,0,0-1.48,9,56,56,0,0,0-.2,6c0,.91.07,1.95.16,3.09s.21,2.14.35,3a.77.77,0,0,0,.24.5.83.83,0,0,0,.2.57.64.64,0,0,0,.44.24l5.06.38,11,.83a.85.85,0,0,0,.55-.13l.13-.12a.65.65,0,0,0,.27-.11.82.82,0,0,0,.29-.48l8.16-31.8,4.81-18.73,3.57-13.91q1.76-6.88,3.53-13.75l0-.11a.66.66,0,0,0-.09-.54.79.79,0,0,0-.51-.34h-.11a2,2,0,0,0-.37-.14l-10.44-2.68-.11,0-3.83-1-1.18-.3-1.18-.3-.12,0Z"/><path class="cls-7" d="M93.33,40.65A173.57,173.57,0,0,0,83.16,74.41a149.52,149.52,0,0,0-2.61,24.22c0,.06,0,.13,0,.18a.75.75,0,0,0,.46.82l.27.11,30.28,12.49L124,117.38l12.47,5.14,4.43,1.83,2.41,1,8.25,3.41a.67.67,0,0,0,.26.06.76.76,0,0,0,.37-.1c.09-.34.18-.68.27-1l0,0,0-.1.11-.43c1.24-5.17,2.48-10.28,3.73-15.38l2.06-8.47,8-33.08.12-.49q.87-3.6,1.75-7.2l1.92-7.9.9-3.69,0-.11c.07-.46.15-.91.22-1.37.09-.67.19-1.35.3-2,0-.48,0-1,0-1.45h0a.67.67,0,0,0-.52-.32L146,44l-16.68-1.12L112.62,41.7l-9-.61-9-.61a.58.58,0,0,0-.27-.21A.61.61,0,0,0,94,40.2a.74.74,0,0,0-.68.45Z"/><path class="cls-8" d="M123.35,105.63a2.37,2.37,0,1,0,2.37-2.37,2.39,2.39,0,0,0-2.37,2.37Z"/><path class="cls-8" d="M145.24,112a2.37,2.37,0,1,0,2.37-2.37,2.39,2.39,0,0,0-2.37,2.37Z"/><path class="cls-8" d="M136,53.77a2.37,2.37,0,1,0,2.37-2.37A2.39,2.39,0,0,0,136,53.77Z"/><path class="cls-8" d="M157.73,57.68a2.37,2.37,0,1,0,2.37-2.37,2.39,2.39,0,0,0-2.37,2.37Z"/><path class="cls-2" d="M170.4,94.66l-5.5-1.45,4.2-15.95,5.5,1.45-4.2,15.95Z"/><path class="cls-2" d="M103.19,66.1a.77.77,0,0,0-.53.21.22.22,0,0,0-.12,0,.75.75,0,0,0-.71.54q-.62,2.1-1.27,4.2l-.08.27c-.79,2.59-1.68,5.52-2.45,8.36a72.49,72.49,0,0,0-2.44,13.17.64.64,0,0,0,.18.49.78.78,0,0,0,.55.25.77.77,0,0,0,.34-.08l13.7,3,12.37,2.67.18,0a.73.73,0,0,0,.73-.54l2.45-11.35,3.11-14.41a.84.84,0,0,0-.07-.57.71.71,0,0,0-.54-.73L116,68.83l-12.61-2.72-.19,0Z"/><path class="cls-9" d="M147.75,54.64c-7.33,0-15.13,10.73-18.15,25C128,87,128,94.25,129.49,100s4.34,9.41,8,10.19a7.27,7.27,0,0,0,1.49.15c7.33,0,15.13-10.73,18.15-25,1.56-7.4,1.6-14.66.11-20.44s-4.34-9.41-8-10.19a7.27,7.27,0,0,0-1.49-.15Z"/><path class="cls-1" d="M137.64,108.61c7.17,1.52,15.48-9,18.54-23.43s-.28-27.41-7.46-28.93-15.48,9-18.54,23.43.28,27.41,7.46,28.93Z"/><path class="cls-2" d="M146.62,61.56c-5.58,0-11.51,8.16-13.8,19a35.12,35.12,0,0,0-.08,15.55c1.14,4.4,3.3,7.15,6.1,7.75A5.53,5.53,0,0,0,140,104c5.58,0,11.51-8.16,13.8-19a35.12,35.12,0,0,0,.08-15.55c-1.14-4.4-3.3-7.15-6.1-7.75a5.53,5.53,0,0,0-1.13-.12Z"/><path class="cls-8" d="M145.56,77.43c-1.9,0-3.93,2.79-4.71,6.48a12,12,0,0,0,0,5.31c.39,1.5,1.13,2.44,2.08,2.65a1.94,1.94,0,0,0,.39,0c1.9,0,3.93-2.79,4.71-6.48a12,12,0,0,0,0-5.31c-.39-1.5-1.13-2.44-2.08-2.65a1.94,1.94,0,0,0-.39,0Z"/><path class="cls-2" d="M51.54,48.73h0A8.5,8.5,0,0,0,47,50.11a7.63,7.63,0,0,0-2.63,3.28,12.37,12.37,0,0,0-.93,4.44,18.71,18.71,0,0,0,.48,4.75A19.71,19.71,0,0,0,45.45,67a12.84,12.84,0,0,0,2.44,3.47,16.75,16.75,0,0,0,2.91,2.3,12.53,12.53,0,0,0,3.42,1.51,10.15,10.15,0,0,0,1.76.3l.54,0a9.22,9.22,0,0,0,1.38-.12,7,7,0,0,0,1.72-.5,7.09,7.09,0,0,0,1.4-.77,5.39,5.39,0,0,0,1.51-1.65,5.65,5.65,0,0,0,.69-2,11,11,0,0,0-.46-4.8,26,26,0,0,0-2.15-5.06,40.25,40.25,0,0,0-2.85-4.53,31.71,31.71,0,0,0-2.42-3,14.31,14.31,0,0,0-1.78-1.64,6.48,6.48,0,0,0-1.3-.79l-.09,0a.7.7,0,0,0,.06-.28.73.73,0,0,0-.69-.72Z"/><path class="cls-2" d="M116,31.37a5.91,5.91,0,0,0-2.53.63,7.2,7.2,0,0,0-1.29.8,9.42,9.42,0,0,0-1.27,1.15,8.18,8.18,0,0,0-1.63,2.66,11.21,11.21,0,0,0-.6,2.77,18,18,0,0,0-.05,3.06,35.21,35.21,0,0,0,1.12,6.73,61.88,61.88,0,0,0,2,6.42c.34.92.71,1.83,1.09,2.74l.16.38a13.36,13.36,0,0,0,1.18,2.37,3.85,3.85,0,0,0,2.21,1.68,2.65,2.65,0,0,0,.6.07,3.55,3.55,0,0,0,1.81-.55,6.8,6.8,0,0,0,2-2,11.07,11.07,0,0,0,1.42-2.93,9.3,9.3,0,0,0,.48-3.16,8,8,0,0,0-.58-2.71,19.53,19.53,0,0,0-2.62-4.29,9.37,9.37,0,0,0,1.56-1.06,9.26,9.26,0,0,0,1.7-1.89,8.59,8.59,0,0,0,1.52-4.47A6.63,6.63,0,0,0,123,35.52a7,7,0,0,0-1.83-1.67,7.6,7.6,0,0,0-1.72-.79.68.68,0,0,0-.13-.19,5.13,5.13,0,0,0-1.28-1,4.28,4.28,0,0,0-1.59-.48l-.48,0Z"/><path class="cls-10" d="M81.8,97a.75.75,0,0,0-.39.64c0,.74-.1,1.52-.2,2.32a25.64,25.64,0,0,1-1.69,6.29,19.59,19.59,0,0,1-2.28,4c-.22.28-.45.56-.68.83a.73.73,0,0,0,0,1l.13.1A19.79,19.79,0,0,0,77.86,116a24.25,24.25,0,0,0,1.59,3.27,18.45,18.45,0,0,0,4.27,5,13.64,13.64,0,0,0,5.72,2.78,12.28,12.28,0,0,0,2.54.26,13.25,13.25,0,0,0,4.25-.7,9.92,9.92,0,0,0,2.72-1.41,9.57,9.57,0,0,0,2.09-2.11,9.27,9.27,0,0,0,1.73-5.58,10.16,10.16,0,0,0-.52-3.06,8.68,8.68,0,0,0-1.62-2.91,12,12,0,0,0-1.07-1.14l-.16-.12a.28.28,0,0,1-.08-.1l-.75-.68-.17-.15A19.94,19.94,0,0,1,96,107a9.56,9.56,0,0,1-1.07-1.82,9.7,9.7,0,0,1-.62-2.31,22.25,22.25,0,0,1,0-4.33.63.63,0,0,0,0-.17.78.78,0,0,0,0-.12.71.71,0,0,0-.71-.52h-.18l-.76.13-.06,0,0,0c-.92.09-1.87.15-2.83.15a25.15,25.15,0,0,1-3.31-.22,13.21,13.21,0,0,1-3-.75c-.2-.09-.39-.18-.58-.28a.72.72,0,0,0-.94.19Z"/><path class="cls-11" d="M81.78,97a.77.77,0,0,0-.39.65c0,.78-.1,1.56-.2,2.32s-.22,1.36-.36,2c.36.19.74.37,1.12.53l-.06,0a20.71,20.71,0,0,0,5.2,1.38h0a20.79,20.79,0,0,0,5.21.06h0a14.33,14.33,0,0,0,2.12-.44q-.06-.3-.11-.61a22,22,0,0,1,0-4.33.54.54,0,0,0,0-.17.59.59,0,0,0,0-.13.72.72,0,0,0-.73-.53h-.18l-.76.13-.1.05c-1,.09-1.93.14-2.83.14a24.84,24.84,0,0,1-3.31-.22,13.26,13.26,0,0,1-3-.74l-.58-.28a.72.72,0,0,0-.37-.11.75.75,0,0,0-.6.3Z"/><path class="cls-10" d="M99.61,24.37c-.44,0-.88,0-1.32.06a38.67,38.67,0,0,0-6.44,1.25L89,26.4c-3.84,1-7.81,2-11.61,3.3a50,50,0,0,0-6.77,3A41.77,41.77,0,0,0,64.06,37,29.19,29.19,0,0,0,61,39.81a21.75,21.75,0,0,0-2.34,3A17.51,17.51,0,0,0,56.15,49c-.74,3.77-.25,8.06,1.49,13.1.62,1.79,1.39,3.7,2.44,6a3.62,3.62,0,0,0-.44-.07,10.22,10.22,0,0,0-1.22-.06H58a10.42,10.42,0,0,0-2.22.29,7.68,7.68,0,0,0-5.45,4.74,10.5,10.5,0,0,0-.74,3.57,13.54,13.54,0,0,0,1.9,7.38A11,11,0,0,0,54,86.78a9.38,9.38,0,0,0,3.44,1.81,9,9,0,0,0,2.42.32,11.11,11.11,0,0,0,3-.43,22.66,22.66,0,0,0,4.54,5,31.36,31.36,0,0,0,6.17,3.93,45.17,45.17,0,0,0,6.77,2.65,37.38,37.38,0,0,0,6.7,1.38,38.65,38.65,0,0,0,4.47.26,37.55,37.55,0,0,0,9.61-1.24,30.29,30.29,0,0,0,6.52-2.55,24.38,24.38,0,0,0,5.7-4.2,20.62,20.62,0,0,0,4.15-5.86,23.19,23.19,0,0,0,1.92-6.56A48.56,48.56,0,0,0,118.87,67a168.62,168.62,0,0,0-7.3-29.92,33.22,33.22,0,0,0-1.41-4,33.76,33.76,0,0,0-1.84-3.79,9.72,9.72,0,0,0-4.41-4.16,10.46,10.46,0,0,0-4.31-.83Z"/><path class="cls-12" d="M56.35,72.73l-.24.2a3.05,3.05,0,0,0-.37.41,3.73,3.73,0,0,0-.44.7,5.68,5.68,0,0,0-.34.84,6.73,6.73,0,0,0-.22,1,6.63,6.63,0,0,0,0,1.69A10,10,0,0,0,55,79.49a10.56,10.56,0,0,0,1.7,3.32A9.25,9.25,0,0,0,57.86,84a7.83,7.83,0,0,0,1.26,1,.61.61,0,0,0,.65-1,5.62,5.62,0,0,1-.55-.38,5.45,5.45,0,0,1-.8-.87,9.74,9.74,0,0,1-1-2,12.12,12.12,0,0,1-.63-2.68,9.1,9.1,0,0,1,.05-2,6.58,6.58,0,0,1,.41-1.35,5.71,5.71,0,0,1,.49-.86.9.9,0,0,0-.1-1.09A.87.87,0,0,0,57,72.5a1,1,0,0,0-.62.23Zm2.76,10.78.08.07-.08-.07Z"/><path class="cls-12" d="M52.86,73.68a3.32,3.32,0,0,0-1.3.87A3.83,3.83,0,0,0,50.75,76a.61.61,0,1,0,1.17.37c0-.1.07-.19.11-.29a2.66,2.66,0,0,1,.24-.38,2.56,2.56,0,0,1,.28-.26l.33-.18a2.84,2.84,0,0,1,.46-.11,3.37,3.37,0,0,1,.52,0,3.77,3.77,0,0,1,.57.18l.55.31a.9.9,0,0,0,1.36-1,.93.93,0,0,0-.4-.55,3.16,3.16,0,0,0-1.55-.6l-.41,0a3.16,3.16,0,0,0-1.12.2Z"/><path class="cls-13" d="M98.29,24.4a38.23,38.23,0,0,0-6.45,1.25l-1.61.4L89,26.38l-.1,0c-3.81,1-7.74,1.93-11.51,3.27a49.25,49.25,0,0,0-6.77,3A41.7,41.7,0,0,0,64,37,29.68,29.68,0,0,0,61,39.79a21.65,21.65,0,0,0-2.34,3A17.53,17.53,0,0,0,56.13,49c-.74,3.77-.25,8.06,1.49,13.11.35,1,.74,2,1.19,3.13a18.1,18.1,0,0,0,1,1.54,14.25,14.25,0,0,0,1.13,1.37,12.61,12.61,0,0,0,1.18,1.09l0,0a9.42,9.42,0,0,0,1,.69,10.12,10.12,0,0,0,1,.53l.06,0h0a5.53,5.53,0,0,0,.71.27,6.12,6.12,0,0,0,.69.16,4.73,4.73,0,0,0,.56.05l.55,0a3.38,3.38,0,0,0,.48-.08l.49-.15a4.7,4.7,0,0,0,.78-.43l0,0a4.25,4.25,0,0,0,.48-.41c.12-.13.24-.26.35-.4a4.22,4.22,0,0,0,.35-.52c.09-.16.16-.31.24-.47h0a6.06,6.06,0,0,0,.29-.83q.1-.38.17-.78v.06a8.34,8.34,0,0,0,.1-1.05,10.62,10.62,0,0,0,0-1.08h0A10.08,10.08,0,0,0,70,63.42a12.33,12.33,0,0,0-.41-1.32,14.81,14.81,0,0,0-.87-1.85,17.67,17.67,0,0,0-1.08-1.68,18.39,18.39,0,0,0-1.47-1.75.24.24,0,0,1,.06-.37,18.68,18.68,0,0,0,2-1.21h0l0,0h0a10,10,0,0,0,1-.84,9.3,9.3,0,0,0,.82-.88l0,0a7.13,7.13,0,0,0,.55-.78,8.24,8.24,0,0,0,.45-.86v0a6.61,6.61,0,0,0,.33-.91,8.28,8.28,0,0,0,.2-.9h0c0-.26.06-.52.09-.78a.25.25,0,0,1,.07-.17.24.24,0,0,1,.17-.06c1.25.17,2.51.36,3.78.44.6,0,1.21.07,1.81.06.31,0,.61,0,.92,0l.8-.07h-.06a37.22,37.22,0,0,0,4.69-.77,34.36,34.36,0,0,0,4.31-1.31,29.34,29.34,0,0,0,3.46-1.57,28.16,28.16,0,0,0,3.2-2h0a25.26,25.26,0,0,0,2.44-2,24.94,24.94,0,0,0,2.16-2.36v0c.48-.6.92-1.22,1.34-1.86a.24.24,0,0,1,.37,0c.43.42.88.82,1.36,1.21h0A17.41,17.41,0,0,0,104.23,40a16.43,16.43,0,0,0,1.93,1h0a13.17,13.17,0,0,0,1.66.61,13.64,13.64,0,0,0,1.51.35h0a11.13,11.13,0,0,0,1.45.14,11.86,11.86,0,0,0,1.31-.05H112a9.52,9.52,0,0,0,1.14-.19q-.75-2.42-1.57-4.77a32.54,32.54,0,0,0-1.41-4,33.89,33.89,0,0,0-1.84-3.79,9.71,9.71,0,0,0-4.42-4.17,10.41,10.41,0,0,0-4.32-.83c-.44,0-.88,0-1.32.06ZM94.76,43.87l0,0,0,0ZM71,51.91v0Zm-2.79,3.3,0,0h0l0,0ZM64,70.37h0Z"/><path class="cls-13" d="M51.5,83.89A10.9,10.9,0,0,0,54,86.79a9.38,9.38,0,0,0,3.44,1.82,8.93,8.93,0,0,0,2.42.32,11.05,11.05,0,0,0,3-.43,22,22,0,0,0,4.52,5,31,31,0,0,0,6.18,3.94,44.84,44.84,0,0,0,6.77,2.66l.8.24h0a39.34,39.34,0,0,0,10.34,1.39c.8,0,1.66,0,2.58-.07a37.58,37.58,0,0,0,7-1.15,30.51,30.51,0,0,0,5.46-2q-.76.24-1.52.46c-.59.16-1.18.32-1.78.46s-1.13.27-1.7.38q-1.5.31-3,.49a40.27,40.27,0,0,1-6.37.24,43.27,43.27,0,0,1-6.55-.77,39.88,39.88,0,0,1-12.88-4.85,31.3,31.3,0,0,1-5.42-4.08c-.23-.21-.45-.43-.67-.66s-.28-.27-.41-.42-.44-.56-.65-.85a20.3,20.3,0,0,0-1.75-2.23,3.45,3.45,0,0,0-.51-.42l-.17-.08h0l-.27,0a3.13,3.13,0,0,0-.42,0l-.41.08c-.81.21-1.58.55-2.4.71a4,4,0,0,1-1.13.09,2.81,2.81,0,0,1-.39-.06l-.27-.06-.46-.13a11.12,11.12,0,0,1-2.26-.94,12.19,12.19,0,0,1-2-1.34,13.29,13.29,0,0,1-1.78-1.79A14.34,14.34,0,0,1,50.2,81a12.76,12.76,0,0,0,1.31,2.92Z"/><polygon class="cls-13" points="63.15 86.15 63.15 86.15 63.14 86.14 63.15 86.15 63.15 86.15 63.15 86.15"/><polygon class="cls-13" points="63.15 86.15 63.16 86.15 63.15 86.15 63.15 86.15 63.15 86.15 63.15 86.15"/><polygon class="cls-13" points="99.37 39.45 99.36 39.46 99.37 39.45 99.37 39.45 99.37 39.45 99.37 39.45"/><polygon class="cls-13" points="99.36 39.47 99.36 39.47 99.36 39.46 99.36 39.47 99.36 39.47 99.36 39.47"/><path class="cls-13" d="M109.36,42h0Z"/><path class="cls-13" d="M65.5,70.82h0Z"/><path class="cls-13" d="M66.52,70.85h0Z"/><path class="cls-14" d="M94.86,82.46a4.64,4.64,0,0,0-2.86,1,2.09,2.09,0,0,0-.72,1.72.6.6,0,0,0,.11.58l.06.07a3.08,3.08,0,0,0,.45.73,4.38,4.38,0,0,0,.73.66,8.11,8.11,0,0,0,1.61.93l.83.37a14.53,14.53,0,0,0,2.31.89,27.33,27.33,0,0,0,2.82.71,6.69,6.69,0,0,0,1.49.14,2.43,2.43,0,0,0,1.47-.54,1.63,1.63,0,0,0,.54-1.29,2.76,2.76,0,0,0-.5-1.41,10.52,10.52,0,0,0-1.84-2,11,11,0,0,0-1.15-.92,10.61,10.61,0,0,0-1.74-.9,9.06,9.06,0,0,0-1.61-.5,8.21,8.21,0,0,0-1.78-.22Z"/><path class="cls-14" d="M94.38,86.64a.24.24,0,0,0,.07.33,16.92,16.92,0,0,0,4.14,1.86,10.43,10.43,0,0,0,2.31.4A6.28,6.28,0,0,0,103.1,89a.24.24,0,0,0,.18-.28.24.24,0,0,0-.28-.18l-.54.14c-.19,0-.38.06-.57.09h.06a8.56,8.56,0,0,1-1,0,8.37,8.37,0,0,1-1.05-.11h.06a12.66,12.66,0,0,1-1.8-.45,15.55,15.55,0,0,1-1.67-.67,19.77,19.77,0,0,1-1.75-.95.24.24,0,0,0-.13,0,.23.23,0,0,0-.2.11Zm2,.86h0Z"/><path class="cls-2" d="M92,75.37a3.84,3.84,0,0,0-.55,0,3.76,3.76,0,0,0-1.18.37,3.11,3.11,0,0,0-1.36,1.45,5.6,5.6,0,0,0-.48,2.16,10,10,0,0,0,.2,2.36,11.85,11.85,0,0,0,.63,2.19,8.87,8.87,0,0,0,.95,1.84,12,12,0,0,0,8.13,4.8,14.19,14.19,0,0,0,2.13.16,11.69,11.69,0,0,0,6.91-2.08,8.9,8.9,0,0,0,2.92-3.55,9.27,9.27,0,0,0,.7-2.41,11.19,11.19,0,0,0,.06-3,4.84,4.84,0,0,0-.72-2.19,2.62,2.62,0,0,0-.61-.64,3.06,3.06,0,0,0-.91-.46,3.53,3.53,0,0,0-.88-.13h-.16a5.55,5.55,0,0,0-.75.06,13.5,13.5,0,0,0-2.08.51l-1.32.44a21.85,21.85,0,0,1-3.1.91l-.44.06a6.58,6.58,0,0,1-1.55-.37,19.41,19.41,0,0,1-2.05-1l-.76-.41a8.57,8.57,0,0,0-3.06-1.07,5.36,5.36,0,0,0-.69,0Zm1.59,11.81a10.27,10.27,0,0,1-1.73-1.61,7.19,7.19,0,0,1,.93-1,5.85,5.85,0,0,1,1.11-.69,5.72,5.72,0,0,1,1.19-.35,6.54,6.54,0,0,1,.9-.06l.54,0a8.38,8.38,0,0,1,1.87.45A9.69,9.69,0,0,1,100.38,85l0,0,.09.06h0A9.85,9.85,0,0,1,102,86.54a8.63,8.63,0,0,1,1,1.61,7.65,7.65,0,0,1,.3.83l-.92.19a13.22,13.22,0,0,1-1.91.14,13.55,13.55,0,0,1-1.36-.07A13.17,13.17,0,0,1,96,88.48a11.66,11.66,0,0,1-2.41-1.3Z"/><path class="cls-2" d="M83.53,62.53a6.4,6.4,0,0,0-2.37,3.52A11.64,11.64,0,0,0,81,71.13a.67.67,0,0,0,.33.43.71.71,0,0,0,1-.26.76.76,0,0,0,.07-.55l0-.28v0a11.93,11.93,0,0,1,0-2.92,8.29,8.29,0,0,1,.48-1.8,6.29,6.29,0,0,1,.67-1.16,5.13,5.13,0,0,1,.74-.74,4.5,4.5,0,0,1,.78-.45,4.14,4.14,0,0,1,.74-.2,4.07,4.07,0,0,1,.8,0,4.2,4.2,0,0,1,.8.23,4.57,4.57,0,0,1,.77.46,5.31,5.31,0,0,1,.81.82,7.51,7.51,0,0,1,.86,1.52L89.69,66a10.6,10.6,0,0,1,.67,2.51c0,.25.06.51.08.77a.74.74,0,0,0,.21.5.71.71,0,0,0,1.21-.5,10.54,10.54,0,0,0-1.62-5.21A5.35,5.35,0,0,0,87,61.81a4.35,4.35,0,0,0-.91-.1,4.56,4.56,0,0,0-2.6.82Zm2.86.6h0Zm.8.19.07,0-.07,0Zm3.15,5.08v0Zm-8,2.06v0Z"/><path class="cls-2" d="M112.17,57.32a3.71,3.71,0,0,0-2.66,2.27,9,9,0,0,0-.33,5.4c.05.27.12.54.19.81a.71.71,0,1,0,1.37-.38q-.19-.74-.31-1.5a9.64,9.64,0,0,1,0-2.34,6.18,6.18,0,0,1,.36-1.34,4.32,4.32,0,0,1,.45-.76,3.32,3.32,0,0,1,.43-.42,2.74,2.74,0,0,1,.4-.24,2.56,2.56,0,0,1,.43-.12,2.32,2.32,0,0,1,.44,0,2.65,2.65,0,0,1,.49.14,3.34,3.34,0,0,1,.51.3,4.28,4.28,0,0,1,.63.64,6.43,6.43,0,0,1,.68,1.2,10.65,10.65,0,0,1,.63,2.42c0,.2,0,.4.07.6a.77.77,0,0,0,.21.5.71.71,0,0,0,1.21-.5,12.74,12.74,0,0,0-.63-3.09,7.32,7.32,0,0,0-1.21-2.18A4,4,0,0,0,114,57.57a3.23,3.23,0,0,0-.82-.26,3.42,3.42,0,0,0-.5,0,3.32,3.32,0,0,0-.52,0Zm0,1.45-.06,0,.06,0Zm-1.41,1.51,0,.1,0-.1Z"/><path class="cls-12" d="M100.28,56.69a.7.7,0,0,0-.43.31.77.77,0,0,0-.09.54,47.49,47.49,0,0,0,2,9.82.78.78,0,0,0,.31.44.71.71,0,0,0,.71,0,9.59,9.59,0,0,1,1.22-.61,5.29,5.29,0,0,1,1.15-.29,3.35,3.35,0,0,1,.66,0,2.56,2.56,0,0,1,.42.13,2.35,2.35,0,0,1,.33.21,2.44,2.44,0,0,1,.26.28,3.07,3.07,0,0,1,.25.47,4,4,0,0,1,.17.75,5,5,0,0,1,0,1,5.49,5.49,0,0,1-.36,1.17,5.15,5.15,0,0,1-.59.93,4.61,4.61,0,0,1-.65.61,4.28,4.28,0,0,1-.76.41,4.54,4.54,0,0,1-.9.21,5.31,5.31,0,0,1-1.18-.05,8.75,8.75,0,0,1-1-.25.71.71,0,1,0-.43,1.36,7,7,0,0,0,2.49.37,5.12,5.12,0,0,0,1.95-.51,4.77,4.77,0,0,0,1.4-1.08,5.83,5.83,0,0,0,1-1.57,5.43,5.43,0,0,0,.37-3.26,3.67,3.67,0,0,0-.66-1.46,3,3,0,0,0-1.24-.94,3.62,3.62,0,0,0-2-.16,5.36,5.36,0,0,0-1.11.31q-.36.14-.71.3a49.7,49.7,0,0,1-1.73-9,.68.68,0,0,0-.31-.44.73.73,0,0,0-.38-.11l-.17,0Zm7,12v0Z"/><path class="cls-2" d="M82.38,48.87a13.88,13.88,0,0,0-2.12,1.06,15.23,15.23,0,0,0-1.67,1.15,17.29,17.29,0,0,0-3,3.05c-.78,1-1.56,2-2.26,3.11a1.52,1.52,0,0,0-.31,1,1.39,1.39,0,0,0,.48.91A1.37,1.37,0,0,0,75.4,59a9.29,9.29,0,0,1,1.25-1.5,10.68,10.68,0,0,1,1.18-.9c.44-.29.91-.54,1.37-.78a26.11,26.11,0,0,1,4-1.61c.72-.23,1.44-.44,2.16-.65a6.69,6.69,0,0,0,2.21-1,2.26,2.26,0,0,0-.35-3.89,4.45,4.45,0,0,0-1.92-.4,8.72,8.72,0,0,0-2.9.59Z"/><path class="cls-2" d="M110.25,44.85a13.86,13.86,0,0,1,2.28.65,15.23,15.23,0,0,1,1.86.82,17.29,17.29,0,0,1,3.53,2.44c1,.85,1.91,1.71,2.8,2.63a1.52,1.52,0,0,1,.5.94,1.39,1.39,0,0,1-.31,1,1.37,1.37,0,0,1-1.93.19,9.29,9.29,0,0,0-1.51-1.24,10.67,10.67,0,0,0-1.33-.67c-.48-.2-1-.36-1.49-.52a26.09,26.09,0,0,0-4.19-.84c-.75-.09-1.5-.16-2.24-.23a6.69,6.69,0,0,1-2.36-.56,2.26,2.26,0,0,1-.38-3.89,4.44,4.44,0,0,1,1.81-.75,8.72,8.72,0,0,1,3,0Z"/><path class="cls-2" d="M87.63,8a26.14,26.14,0,0,0-3.05.19A36.84,36.84,0,0,0,76,10.34a40,40,0,0,0-8,4,26.82,26.82,0,0,0-6.18,5.44,15.61,15.61,0,0,0-2.25,3.62,12,12,0,0,0-.67,1.94,11,11,0,0,0-.23,1.34l-.09,0-.1,0a6.53,6.53,0,0,0-1.52-.2h-.19A8.89,8.89,0,0,0,54,27a15.12,15.12,0,0,0-5.45,3.39,16.35,16.35,0,0,0-2,2.31,10.41,10.41,0,0,0-1.33,2.48,12,12,0,0,0-.41,6.41A14,14,0,0,0,46.9,46.7a12.52,12.52,0,0,0,3.54,3.55A9.35,9.35,0,0,0,50,52a13.79,13.79,0,0,0-.19,2.59,16.75,16.75,0,0,0,1,5.43c1.35,3.67,3.78,6.25,6.67,7.08a1.05,1.05,0,0,0,.19.17,14,14,0,0,1,1.67,1.67l.15.17a23.43,23.43,0,0,0,2.11,2.16,5.41,5.41,0,0,0,2.43,1.33,3.08,3.08,0,0,0,.62.06,3.65,3.65,0,0,0,.72-.07A3.19,3.19,0,0,0,66,72.3a4.43,4.43,0,0,0,.59-.3,4.26,4.26,0,0,0,1.58-1.73,6.12,6.12,0,0,0,.6-2.36,10.48,10.48,0,0,0-.18-2.6,15.5,15.5,0,0,0-.69-2.58,18,18,0,0,0-1.84-3.84,13,13,0,0,0-2.88-3.07A6.38,6.38,0,0,0,64.74,55,7.69,7.69,0,0,0,67,52.39a8,8,0,0,0,.9-3.38,7,7,0,0,0-.24-2.13,42.89,42.89,0,0,0,7,.56c.89,0,1.8,0,2.69-.08a36.74,36.74,0,0,0,11.07-2.3,23.16,23.16,0,0,0,8.4-5.4,18.29,18.29,0,0,0,3-4A18.66,18.66,0,0,0,100.87,33a12.85,12.85,0,0,0,2.73,3.4,16.38,16.38,0,0,0,6,3.46,11.5,11.5,0,0,0,3.24.54h0a7.21,7.21,0,0,0,1.35-.12,5.4,5.4,0,0,0,1.27-.41,5.72,5.72,0,0,0,1.93-1.49A12.92,12.92,0,0,0,119,36.07a19.13,19.13,0,0,0,1.27-2.76,13.68,13.68,0,0,0,.64-2.65,17,17,0,0,0-.18-5.63,17.81,17.81,0,0,0-1.9-5.17,15.21,15.21,0,0,0-3.27-4.11A11.68,11.68,0,0,0,112,13.59a9.29,9.29,0,0,0-3.27-.59L108,13a11,11,0,0,0-4.41,1.38A15.41,15.41,0,0,0,101.31,16a8.06,8.06,0,0,0-1.05,1,10.49,10.49,0,0,0-.43-1.87A9.79,9.79,0,0,0,98.12,12a10.91,10.91,0,0,0-5.76-3.43,18,18,0,0,0-3.76-.53l-1,0Z"/><path class="cls-15" d="M96.39,27.55a12.29,12.29,0,0,1-.09,1.32,10.46,10.46,0,0,1-.67,2.44h0v0l0,.06v0a11.32,11.32,0,0,1-1.33,2.27h0l0,0-.05.07,0,0a15.07,15.07,0,0,1-2.55,2.51,18.11,18.11,0,0,1-3.82,2.21A24.19,24.19,0,0,1,82.06,40a19.61,19.61,0,0,1-5.13,0l.21,0-.6-.09a.84.84,0,0,0-.61.08.79.79,0,0,0-.28,1.09.77.77,0,0,0,.47.37,18.51,18.51,0,0,0,5.41.15,21.69,21.69,0,0,0,5.58-1.39,19.63,19.63,0,0,0,5-2.89,13.49,13.49,0,0,0,3.5-4.13A12.3,12.3,0,0,0,97,27.55a.32.32,0,0,0-.32-.32.32.32,0,0,0-.32.32ZM88,38.34l-.05,0,.05,0ZM82,40h0Zm12.29-6.35,0,0h0l0,.05Zm1.37-2.32v0h0l0,0Z"/><path class="cls-15" d="M93.74,21.58a12,12,0,0,1-.09,2.16v-.07a11.81,11.81,0,0,1-.29,1.39,11,11,0,0,1-.47,1.32l0-.08a10.24,10.24,0,0,1-1.25,2.14A10.35,10.35,0,0,1,90,30.14a10.78,10.78,0,0,1-2,1.15.52.52,0,0,0-.25.32.56.56,0,0,0,.06.42.55.55,0,0,0,.74.19,12.25,12.25,0,0,0,2.6-1.89,9.7,9.7,0,0,0,1-1.14A9.42,9.42,0,0,0,93,27.81a11.27,11.27,0,0,0,.58-1.36A9.68,9.68,0,0,0,94,24.85a14.18,14.18,0,0,0,.18-3.26.24.24,0,0,0-.24-.24.24.24,0,0,0-.24.24Zm-2,6.8,0,.06,0-.06Z"/><path class="cls-15" d="M110.83,17.37a.29.29,0,0,0,.1.39,7.52,7.52,0,0,1,1,.63h0A9.27,9.27,0,0,1,113.43,20l-.06-.08a11.77,11.77,0,0,1,1.47,2.59l-.06-.13a13.32,13.32,0,0,1,.85,3.12,10.64,10.64,0,0,1,0,2.51,8.69,8.69,0,0,1-.55,2,9.58,9.58,0,0,1-1,1.73l.06-.08,0,0-.11.14a.71.71,0,0,0,1.11.86,6.7,6.7,0,0,0,1.28-1.87,7.91,7.91,0,0,0,.64-2.16,10.4,10.4,0,0,0-.37-4.57,11.77,11.77,0,0,0-.9-2.13A12.64,12.64,0,0,0,114.5,20a10.72,10.72,0,0,0-3.28-2.78.31.31,0,0,0-.15,0,.28.28,0,0,0-.25.14Zm4.35,12.45-.06.13.06-.13Z"/><path class="cls-15" d="M118.38,35.69a.28.28,0,0,0,0,.4,5.23,5.23,0,0,1,.73.76,5.46,5.46,0,0,1,.55,1,5,5,0,0,1,.3,1.1,4.59,4.59,0,0,1,0,.94,3.94,3.94,0,0,1-.24.87,4.33,4.33,0,0,1-.45.74l0,0a.5.5,0,0,0-.13.32.46.46,0,0,0,.13.32.47.47,0,0,0,.32.13.46.46,0,0,0,.23-.06.45.45,0,0,0,.16-.16,4.18,4.18,0,0,0,.42-.71,4.36,4.36,0,0,0,.28-.85,4.47,4.47,0,0,0,0-1.75,4.88,4.88,0,0,0-.67-1.67,5.83,5.83,0,0,0-1.2-1.39.32.32,0,0,0-.21-.08.27.27,0,0,0-.19.08Zm.71,1.13,0,0,0,0Zm0,0,0,0,0,0Zm.85,3v0Z"/><path class="cls-15" d="M59.71,56.35a.39.39,0,0,0,.14.52,8.16,8.16,0,0,1,1,.65l-.08-.06a10.31,10.31,0,0,1,1.7,1.69,11,11,0,0,1,1.34,2.3,12.6,12.6,0,0,1,.82,3,11.15,11.15,0,0,1,0,2.76h0c0,.24-.08.49-.13.73a.7.7,0,0,0,.07.52.67.67,0,0,0,.4.31.68.68,0,0,0,.83-.47,9.25,9.25,0,0,0,.2-3.45,11.2,11.2,0,0,0-.34-1.74A12.37,12.37,0,0,0,65,61.36a11.9,11.9,0,0,0-2-3,10.6,10.6,0,0,0-2.74-2.18.4.4,0,0,0-.19,0,.38.38,0,0,0-.33.18Zm4.09,5.11,0,.09,0-.09Z"/><path class="cls-15" d="M63.88,46a.43.43,0,0,0-.3.52A7.82,7.82,0,0,1,64,47.94a6.89,6.89,0,0,1,0,1.68l0-.12a7.46,7.46,0,0,1-.37,1.5.48.48,0,0,0,.34.59.5.5,0,0,0,.37,0,.5.5,0,0,0,.22-.29,6.75,6.75,0,0,0,.37-2.48,7.53,7.53,0,0,0-.53-2.47.46.46,0,0,0-.2-.25A.42.42,0,0,0,64,46ZM64,48v0Z"/><path class="cls-9" d="M99.82,110.68a.32.32,0,0,0-.11.43,11,11,0,0,1,1.4,2.25,11.46,11.46,0,0,1,.69,2.52h0v.06a10.44,10.44,0,0,1,0,2.52,8.44,8.44,0,0,1-1.67,4l-.1.13.1-.13a10.14,10.14,0,0,1-1.71,1.71,11.79,11.79,0,0,1-2.38,1.37,14.44,14.44,0,0,1-3.31.91,12.49,12.49,0,0,1-3,0,12.83,12.83,0,0,1-3-.81A13.07,13.07,0,0,1,84,124a14.71,14.71,0,0,1-2.46-2.5l.08.1a16.41,16.41,0,0,1-1.91-3.21.46.46,0,0,0-.63-.17.45.45,0,0,0-.21.27.5.5,0,0,0,0,.36,17.13,17.13,0,0,0,3.86,5.51,13.3,13.3,0,0,0,5.51,3.12,12.2,12.2,0,0,0,3.21.42,13.38,13.38,0,0,0,3.38-.46,12.66,12.66,0,0,0,3.27-1.37,10.08,10.08,0,0,0,2.48-2.13,9.4,9.4,0,0,0,1-1.36,10.19,10.19,0,0,0,.69-1.48,9.69,9.69,0,0,0,.61-3.32,11.2,11.2,0,0,0-1.18-4.92l-.85-1.09-.88-1-.15-.12Zm2,7.78v.1a1,1,0,0,1,0-.1Zm-.6,2.15,0,.09,0-.09Z"/><path class="cls-9" d="M101.8,115.88v0a.05.05,0,0,0,0,0Z"/><path class="cls-9" d="M101.8,115.95v0Z"/><path class="cls-9" d="M79.66,120.69a4.15,4.15,0,0,0,0,.53,3.2,3.2,0,0,0,.05.42.27.27,0,0,0,.13.17.29.29,0,0,0,.21,0,.28.28,0,0,0,.17-.13.31.31,0,0,0,0-.21c0-.06,0-.11,0-.17v.07a3,3,0,0,1,0-.7.28.28,0,1,0-.56,0Z"/><path class="cls-10" d="M98.59,110.71a.24.24,0,0,0-.07.33c.21.34.43.67.63,1s.38.7.55,1.07a.23.23,0,0,0,.14.1.24.24,0,0,0,.29-.17.28.28,0,0,0,0-.18q-.26-.54-.55-1.07c-.2-.34-.41-.68-.63-1a.24.24,0,0,0-.33-.08Z"/><path class="cls-10" d="M98.78,110.66a.24.24,0,0,0-.08.33c.17.23.33.47.48.71a9.05,9.05,0,0,1,.47.87l.06.13a.25.25,0,0,0,.11.14.22.22,0,0,0,.18,0,.25.25,0,0,0,.14-.11.23.23,0,0,0,0-.19c-.13-.28-.26-.55-.41-.82a11.06,11.06,0,0,0-.65-1,.26.26,0,0,0-.2-.11.23.23,0,0,0-.12,0Zm.86,1.88h0Z"/><path class="cls-10" d="M99.16,110.76a.22.22,0,0,0-.16.07.24.24,0,0,0-.07.17.27.27,0,0,0,.07.16l.08.09c.16.2.3.41.44.62a6.92,6.92,0,0,1,.37.69l0-.06.06.14a.27.27,0,0,0,.11.14.24.24,0,0,0,.34-.28l-.16-.34a6.06,6.06,0,0,0-.3-.55,7,7,0,0,0-.6-.81.22.22,0,0,0-.16-.06Zm-.07.5,0,0,0,0Z"/><path class="cls-10" d="M99.05,110.65A.24.24,0,0,0,99,111c.2.27.4.54.58.83a8.89,8.89,0,0,1,.48.88.24.24,0,0,0,.15.1.24.24,0,0,0,.28-.17.26.26,0,0,0,0-.18c-.15-.3-.31-.6-.48-.88a8.93,8.93,0,0,0-.58-.83.25.25,0,0,0-.14-.1h-.05a.25.25,0,0,0-.13,0Z"/><path class="cls-10" d="M99.21,110.75a.24.24,0,0,0-.08.33,13.53,13.53,0,0,1,.89,1.43.24.24,0,0,0,.4-.25,13.52,13.52,0,0,0-.89-1.43.25.25,0,0,0-.2-.11.23.23,0,0,0-.12,0Z"/><path class="cls-10" d="M99.22,110.7a.24.24,0,0,0-.07.33c.17.22.33.44.48.67a6.54,6.54,0,0,1,.45.82h0l.12.29a.25.25,0,0,0,.11.14.25.25,0,0,0,.18,0,.24.24,0,0,0,.16-.3,8.52,8.52,0,0,0-.45-.94,8,8,0,0,0-.65-1,.27.27,0,0,0-.14-.1h-.06a.25.25,0,0,0-.13,0Zm.85,1.82h0Z"/><path class="cls-10" d="M99.2,110.75a.24.24,0,0,0,0,.34l.21.24h0a5.7,5.7,0,0,1,.34.48,4.69,4.69,0,0,1,.3.55l0,.09a.26.26,0,0,0,.11.14.24.24,0,0,0,.34-.28l-.16-.34a4.85,4.85,0,0,0-.85-1.21.2.2,0,0,0-.16-.07.25.25,0,0,0-.18.07Zm.18.53h0Z"/><path class="cls-10" d="M99.33,110.62a.24.24,0,0,0-.11.15.24.24,0,0,0,0,.18,6.76,6.76,0,0,1,.47.65,6.13,6.13,0,0,1,.39.7.22.22,0,0,0,.14.11.24.24,0,0,0,.28-.17.26.26,0,0,0,0-.18,7.24,7.24,0,0,0-.38-.71,6.13,6.13,0,0,0-.47-.64.26.26,0,0,0-.14-.11h-.06a.23.23,0,0,0-.13,0Z"/><path class="cls-10" d="M99.4,110.64a.25.25,0,0,0-.07.33c.28.46.55.92.79,1.41v0c.08.19.16.38.24.57a5.41,5.41,0,0,1,.23.8.24.24,0,0,0,.3.16.24.24,0,0,0,.14-.11.25.25,0,0,0,0-.18,7.46,7.46,0,0,0-.22-.8c-.08-.23-.18-.45-.28-.67-.24-.5-.52-1-.8-1.44a.24.24,0,0,0-.2-.11.24.24,0,0,0-.12,0Zm.72,1.75h0v0Z"/><path class="cls-10" d="M99.85,111.35a.24.24,0,0,0-.07.33,8.19,8.19,0,0,1,.53.94h0v.06h0c.1.23.19.46.28.7a7.71,7.71,0,0,1,.22.77.24.24,0,0,0,.3.16.24.24,0,0,0,.16-.3q-.07-.31-.17-.62a7.62,7.62,0,0,0-.28-.75,7.33,7.33,0,0,0-.64-1.18.24.24,0,0,0-.2-.11.23.23,0,0,0-.12,0Zm.47,1.3v0h0v0Z"/><path class="cls-10" d="M99.85,111.38a.24.24,0,0,0-.08.33c.17.27.31.54.45.82v0h0a9.91,9.91,0,0,1,.39,1,10.46,10.46,0,0,1,.28,1.1.24.24,0,0,0,.3.16.23.23,0,0,0,.14-.11.24.24,0,0,0,0-.18c-.05-.27-.11-.53-.19-.8s-.16-.52-.25-.77a8.17,8.17,0,0,0-.74-1.51.24.24,0,0,0-.2-.11.23.23,0,0,0-.12,0Zm.38,1.17h0v0Z"/><path class="cls-10" d="M99.27,110.51a.24.24,0,0,0-.07.33,13.21,13.21,0,0,1,.75,1.36l.2.45a.27.27,0,0,0,.11.14.24.24,0,0,0,.18,0,.24.24,0,0,0,.16-.3c-.12-.29-.25-.57-.38-.85a11.72,11.72,0,0,0-.61-1.07.24.24,0,0,0-.2-.11.23.23,0,0,0-.12,0Z"/><path class="cls-10" d="M14.52,0a10.87,10.87,0,0,0-1.1.05,6.44,6.44,0,0,0-2,.51,9.91,9.91,0,0,0-1.12.61c-.41.25-.84.53-1.31.88A17.31,17.31,0,0,0,5,6.32a24.65,24.65,0,0,0-2.7,5.4,36.35,36.35,0,0,0-1.58,6A48.65,48.65,0,0,0,.11,29.56,101.47,101.47,0,0,0,3,47.45c1.61,6.56,3.67,12.94,6,20a.78.78,0,0,0,.3.45.71.71,0,0,0,.4.12l.15,0a.73.73,0,0,0,.45-.3.68.68,0,0,0,.1-.55l-1-3a3.85,3.85,0,0,0,.62.26,6.31,6.31,0,0,0,2,.3l.57,0a8.91,8.91,0,0,0,4.56-1.83A11.47,11.47,0,0,0,19,61.13,12.86,12.86,0,0,0,20.53,59a11.11,11.11,0,0,0,1-2.47c.17.34.36.66.56,1a28.65,28.65,0,0,0,1.94,2.91.65.65,0,0,0,.53.24.75.75,0,0,0,.49-.18.73.73,0,0,0,.06-1c-.22-.28-.44-.58-.65-.88A43.75,43.75,0,0,1,21.85,54a.75.75,0,0,0-.16-.32c-.27-.54-.54-1.09-.79-1.63a73.32,73.32,0,0,1-2.83-7L18,45h0l0,.09a97.24,97.24,0,0,1-3.1-11.3,84.32,84.32,0,0,1-1.6-11.16v.19c0-.47,0-1-.07-1.43a5,5,0,0,0,1.17.13l.59,0a7.52,7.52,0,0,0,2.73-.75A5.56,5.56,0,0,0,19.86,19a3.79,3.79,0,0,0,.56-1.21,3.28,3.28,0,0,0,.08-.45,4.26,4.26,0,0,0,1,.33,4.19,4.19,0,0,0,.75.07,4.39,4.39,0,0,0,1-.11,5,5,0,0,0,2.8-1.89,5.21,5.21,0,0,0,.75-1.4,4.71,4.71,0,0,0,.29-1.66,4.52,4.52,0,0,0-1.45-3.27l-.13-.11a6.06,6.06,0,0,0,.14-.61,4.94,4.94,0,0,0-.13-2.21,7.32,7.32,0,0,0-2.75-3.69,12.48,12.48,0,0,0-2.17-1.3,14.44,14.44,0,0,0-2.35-.9A13.39,13.39,0,0,0,14.52,0Z"/><path class="cls-16" d="M13,8.93a.24.24,0,0,0,.13.31,8.18,8.18,0,0,1,.74.37l-.06,0a14.56,14.56,0,0,1,2.89,2.2h0c.38.37.74.76,1.09,1.17a11.88,11.88,0,0,1,1,1.39,8,8,0,0,1,.72,1.58v0l0,.07v0a5.09,5.09,0,0,1,.19,1.2,4.08,4.08,0,0,1-.09.8,3.61,3.61,0,0,1-.3.75,3.41,3.41,0,0,1-.35.49,4,4,0,0,1-.67.52,7,7,0,0,1-1.4.61h0a8.75,8.75,0,0,1-2.12.35,6.18,6.18,0,0,1-1.47-.14h0l-.07,0h.06a3.91,3.91,0,0,1-.71-.27,2.64,2.64,0,0,1-.48-.35,2.46,2.46,0,0,1-.25-.32,2.27,2.27,0,0,1-.15-.33,2.64,2.64,0,0,1-.09-.62,4.3,4.3,0,0,1,.09-.74,2.48,2.48,0,0,1,.2-.48l0,0,0,0a.35.35,0,0,0,.12-.22.31.31,0,0,0-.07-.24.33.33,0,0,0-.21-.12.31.31,0,0,0-.24.07c-.08.09-.18.16-.26.25a1.48,1.48,0,0,0-.21.29,2.31,2.31,0,0,0-.23.66,3.44,3.44,0,0,0,0,1.18,2.46,2.46,0,0,0,.3.85,2.73,2.73,0,0,0,.64.74,3.24,3.24,0,0,0,.79.46,4.7,4.7,0,0,0,1,.29,6.22,6.22,0,0,0,1,.08,8.66,8.66,0,0,0,1.2-.08A8.44,8.44,0,0,0,18,20.92a5,5,0,0,0,1.66-1.1,3.39,3.39,0,0,0,.55-.81,3.66,3.66,0,0,0,.37-1.23,4.16,4.16,0,0,0,0-1.17,5.45,5.45,0,0,0-.38-1.27,7.37,7.37,0,0,0-.55-1,12.38,12.38,0,0,0-.72-1,15.41,15.41,0,0,0-1.83-1.94A17.52,17.52,0,0,0,15.15,9.8a11.1,11.1,0,0,0-1.79-1l-.09,0a.25.25,0,0,0-.22.15ZM19.75,17s0,.06,0,.1V17ZM12,17.36l0,0,0,0Zm1.38,3.14h0Zm6.22-4.57h0v0Z"/><path class="cls-16" d="M8.41,13.73a.24.24,0,0,0,0,.33,22.26,22.26,0,0,0,2.49,2.23A11.65,11.65,0,0,0,13.76,18a.29.29,0,1,0,.21-.53,10.6,10.6,0,0,1-1.46-.68,17.51,17.51,0,0,1-3.39-2.6l-.37-.37a.24.24,0,0,0-.16-.09h0a.24.24,0,0,0-.15.05Z"/><path class="cls-16" d="M15.64,5.63a.24.24,0,0,0,.13.31,17.91,17.91,0,0,1,3.54,1.47,9.91,9.91,0,0,1,1.92,1.41h0A6.24,6.24,0,0,1,22.17,10a5.48,5.48,0,0,1,.43,1,5.07,5.07,0,0,1,.16,1.13,5.9,5.9,0,0,1-.16,1.24,8.88,8.88,0,0,1-.83,1.94l.07-.12a7.91,7.91,0,0,1-1,1.43,3.86,3.86,0,0,1-.51.42l.09-.06-.26.14a.43.43,0,0,0-.21.22.4.4,0,0,0,0,.31.41.41,0,0,0,.22.21.44.44,0,0,0,.31,0,3.23,3.23,0,0,0,.53-.22,3,3,0,0,0,.55-.38,4.15,4.15,0,0,0,.38-.38,4.2,4.2,0,0,0,.42-.56A9.57,9.57,0,0,0,23,15.13a7.26,7.26,0,0,0,.44-1.2,6.71,6.71,0,0,0,.21-1.11,5.18,5.18,0,0,0,0-1,4.91,4.91,0,0,0-.21-1,4.15,4.15,0,0,0-.39-.87,7.76,7.76,0,0,0-2.9-2.7A19.77,19.77,0,0,0,15.95,5.5h-.09a.23.23,0,0,0-.22.14Zm6.49,4.28,0,0,0,0Zm-1.28,6.72,0,0,0,0Z"/><path class="cls-16" d="M19.82,1.36a.23.23,0,0,0,.13.31,6.6,6.6,0,0,1,1.42.59l-.06,0a8.63,8.63,0,0,1,1.61,1.22l-.06,0a8.37,8.37,0,0,1,1.25,1.56l0,0a7.09,7.09,0,0,1,.68,1.49A5.59,5.59,0,0,1,25,7.63a4.73,4.73,0,0,1-.12,1.09,4.84,4.84,0,0,1-.38.92,6.46,6.46,0,0,1-.72,1l-.14.13a2.21,2.21,0,0,1-.36.26.34.34,0,0,0-.1.41.35.35,0,0,0,.46.18A3.91,3.91,0,0,0,24,11.4a2.74,2.74,0,0,0,.41-.3,3.7,3.7,0,0,0,.63-.73,4.81,4.81,0,0,0,.43-.78,4.87,4.87,0,0,0,.26-.82,4.52,4.52,0,0,0,0-1.65,5.42,5.42,0,0,0-.2-.8,5.49,5.49,0,0,0-.32-.8,7.54,7.54,0,0,0-.94-1.46,9.34,9.34,0,0,0-1.24-1.24,9.59,9.59,0,0,0-1.41-1,7.19,7.19,0,0,0-1.53-.63H20a.23.23,0,0,0-.22.14Zm5,5.08,0,.07,0-.07ZM25,7.63v.09s0-.06,0-.09Zm-.11,1v0Zm0,.05v0Z"/><path class="cls-1" d="M20,53.76h-.3a9.61,9.61,0,0,0-3.1.71,17,17,0,0,0-5.73,3.76,19,19,0,0,0-3.73,5.28,21.93,21.93,0,0,0-1.92,6.23,22.56,22.56,0,0,0-.07,6.52,27.51,27.51,0,0,0,.67,3.26c.26,1,.58,2.07,1,3.25a53.52,53.52,0,0,0,2.7,6.43,71.85,71.85,0,0,0,7.74,12.2,108,108,0,0,0,10,11.18,153.85,153.85,0,0,0,22.35,17.94l.14.09.14.09a.59.59,0,0,0,0,.21,26.4,26.4,0,0,1,.93,3.14h0a.24.24,0,0,0,0,.06h0l0,0h0a69,69,0,0,1,1.05,14c0,1,0,2,0,3,0,1.5,0,3,0,4.5,0,2.8-.07,5.63-.19,8.41l0-.19c-.3,6.45-.9,13-1.8,19.48-.41,3-.86,5.87-1.36,9.07-.52,3.36-1,6.3-1.49,9a176.31,176.31,0,0,1-5.49,23.06h0l0,.06c-.54,1.66-1.12,3.34-1.72,4.93a.76.76,0,0,0,0,.55.71.71,0,0,0,0,.27.7.7,0,0,0,.33.44,129,129,0,0,0,16.13,6.31,73.3,73.3,0,0,0,17,3.2c.66,0,1.32.07,2,.07a21,21,0,0,0,2.11-.1.9.9,0,0,0,.35-.09.73.73,0,0,0,.42-.92,37.91,37.91,0,0,1-1-3.74c-.38-1.7-.75-3.56-1.14-5.85-.33-1.89-.62-3.88-.91-6.07-.5-3.84-.86-7.86-1.12-12.28-.42-7.2-.5-14.83-.26-24.75.11-4.52.26-9,.44-13.23l0,.19c.36-7.66,1.29-15.41,2.19-22.89l.18-1.52c1-8.31,1.91-16.43,2.12-24.5a102.34,102.34,0,0,0-.59-14.58.74.74,0,0,0-.25-.47.79.79,0,0,0-.36-.41l-1.48-1,.15.12c-2.54-1.73-5-3.48-7-5l-3.53-2.58-.71-.52c-.9-.66-1.79-1.32-2.68-2a100.85,100.85,0,0,1-12-10.84C48.89,86,47.5,84.46,46,82.72c-3-3.52-6.17-7.5-9.86-12.49-1.61-2.18-3.2-4.38-4.79-6.58l-.54-.76L29,60.34c-.55-.75-1.28-1.74-2.09-2.69a11.31,11.31,0,0,0-4.47-3.48A7.17,7.17,0,0,0,20,53.76Z"/><path class="cls-3" d="M78,113.74a.46.46,0,0,0-.25.24.45.45,0,0,0,0,.23h0l0,.16a.31.31,0,0,0-.15.39,3.82,3.82,0,0,1,.31.78c0,.12,0,.24.07.36v0c0,.53.05,1.05.12,1.57s0,1.09,0,1.64a.49.49,0,0,0,.54.43.48.48,0,0,0,.33-.18.5.5,0,0,0,.1-.35c0-.83,0-1.66-.09-2.49A10.23,10.23,0,0,0,78.6,114a.44.44,0,0,0-.43-.28.46.46,0,0,0-.16,0Z"/><path class="cls-4" d="M10.84,58.22A18.91,18.91,0,0,0,7.1,63.5a22.12,22.12,0,0,0-1.93,6.24,22.87,22.87,0,0,0-.07,6.52,28.13,28.13,0,0,0,.68,3.27c.26,1,.58,2.08,1,3.25a53,53,0,0,0,2.7,6.43,72.4,72.4,0,0,0,7.74,12.21,108.42,108.42,0,0,0,10,11.18,154,154,0,0,0,22.36,17.93l.14.09.14.09a.39.39,0,0,0,0,.2,27,27,0,0,1,.92,3.14l.05.1a69.27,69.27,0,0,1,1,14c0,1,0,2,0,3,0,1.52,0,3,0,4.51,0,2.83-.07,5.66-.19,8.41l.07-.19c-.35,6.62-1,13.17-1.85,19.48-.36,2.6-.75,5.23-1.36,9.07-.53,3.41-1,6.36-1.49,9a175.45,175.45,0,0,1-5.48,23.06c-.56,1.73-1.13,3.36-1.74,5a.79.79,0,0,0,0,.57.62.62,0,0,0,0,.27.68.68,0,0,0,.34.45,128.32,128.32,0,0,0,16.12,6.31q3.15,1,6.24,1.66-.23-.87-.46-1.74a.25.25,0,0,1,0-.22,105.15,105.15,0,0,1-1.56-14.95c-.18-5.12-.08-10.26.2-15.38.56-10.31,1.76-20.57,2.59-30.86v.06c.53-6.61.93-13.24.86-19.87,0-3.22-.16-6.43-.44-9.64-.14-1.65-.32-3.29-.54-4.92s-.46-3.06-.74-4.58v.06a79.72,79.72,0,0,0-2.52-9.93c-.52-1.6-1.09-3.18-1.72-4.74s-1.33-3.15-2.08-4.68l0,.06c-.54-1.1-1.12-2.19-1.74-3.25s-1.35-2.21-2.08-3.28-1.57-2.23-2.4-3.31-1.62-2-2.47-3h0a59.71,59.71,0,0,0-10.91-10,36.63,36.63,0,0,0-3.49-2.15,23.34,23.34,0,0,0-3-1.38l.06,0a7.81,7.81,0,0,0-1.59-.39,3.2,3.2,0,0,0-.7,0,1.75,1.75,0,0,0-.33.11l-.2.13-.13.15a1.62,1.62,0,0,0-.13.25h0a2.11,2.11,0,0,0-.09.43h0a4.19,4.19,0,0,0,.07,1,10.31,10.31,0,0,0,.48,1.64c.23.61.5,1.22.78,1.81h0a45,45,0,0,0,2.55,4.5c.7,1.1,1.41,2.18,2.19,3.22a.24.24,0,0,1-.36.31c-2-1.77-4-3.61-5.78-5.56A65.58,65.58,0,0,1,22.27,93a55.23,55.23,0,0,1-4-6.12,51.08,51.08,0,0,1-3.07-6.48,54.19,54.19,0,0,1-1.75-5.35c-.44-1.61-.82-3.25-1.11-4.9a40.06,40.06,0,0,1-.63-5.55,27.6,27.6,0,0,1,0-2.87A20,20,0,0,1,12,59.34a14.9,14.9,0,0,1,.64-2.42l.14-.38a18.81,18.81,0,0,0-2,1.68ZM47.61,104.6h0Z"/><path class="cls-5" d="M11.43,57.41a17.15,17.15,0,0,0-2.27,2.36,18.34,18.34,0,0,0-1.81,2.81,21.9,21.9,0,0,0-2.14,6.33,25.39,25.39,0,0,0-.32,6.76,33.29,33.29,0,0,0,1.57,7.27,59.5,59.5,0,0,0,7.4,14.86,80.87,80.87,0,0,0,5,6.59c1.81,2.16,3.73,4.23,5.72,6.22a124.65,124.65,0,0,0,12.23,10.63c.91.7,1.82,1.39,2.76,2,.76.52,1.53,1,2.3,1.51a52.43,52.43,0,0,1,5.11,3.6,14.93,14.93,0,0,1,2.56,2.68l-.06-.09c.17.25.34.5.48.75a7.51,7.51,0,0,1,.35.74l0,.05a.4.4,0,0,0,.16.22.34.34,0,0,0,.26,0,.35.35,0,0,0,.27-.41,9.43,9.43,0,0,0-.39-1,7.87,7.87,0,0,0-.63-1.07,13.42,13.42,0,0,0-1.75-2,35.49,35.49,0,0,0-4.5-3.54c-1.41-1-2.86-1.91-4.22-3q-2.94-2.31-5.82-4.71l.13.11a134.64,134.64,0,0,1-10-9.23c-1.51-1.56-3-3.16-4.37-4.82s-2.68-3.34-3.92-5.09l0,0A62.22,62.22,0,0,1,7.91,83.81l0,.14A45.49,45.49,0,0,1,6.5,79.13,27.83,27.83,0,0,1,5.82,75a26.73,26.73,0,0,1,.33-6.81A22.12,22.12,0,0,1,7.81,63l0,.07A17.15,17.15,0,0,1,10,59.52l0,0a15.61,15.61,0,0,1,1.79-1.81.24.24,0,0,0-.16-.41.25.25,0,0,0-.16.06Zm35.42,70.92,0,0,0,0Z"/><path class="cls-5" d="M51.69,167.62a137,137,0,0,1-2.14,21.85v0c-1,5.8-2.22,11.57-3.56,17.31-.66,2.81-1.35,5.62-2,8.43s-1.58,5.86-2.49,8.76q-1,3-2,6a.58.58,0,0,0,.37.72.58.58,0,0,0,.72-.37c1.09-2.83,2.13-5.68,3-8.58q.68-2.17,1.27-4.37c.37-1.42.7-2.86,1-4.29q1-4.26,1.84-8.54c.59-2.9,1.14-5.8,1.64-8.71q1.2-7,1.94-14.12c.48-4.68.8-9.39.84-14.1a.24.24,0,0,0-.23-.25h0a.24.24,0,0,0-.24.23Zm-2.14,21.84,0-.09,0,.09Z"/><path class="cls-5" d="M77.86,109.47a.49.49,0,0,0-.37.59,23.91,23.91,0,0,1,1.11,5.41v-.14a72.14,72.14,0,0,1-.21,11.34c-.13,2-.22,4-.36,6-.15,2.14-.34,4.28-.55,6.42-.42,4.28-.93,8.55-1.42,12.82s-.94,8.52-1.35,12.78c-.82,8.49-1.44,17-1.63,25.53q-.14,6.4.08,12.82c.07,2,.19,4,.29,6.06s.18,3.89.29,5.83c.24,4.38.58,8.77,1.24,13.11q.49,3.24,1.28,6.41c.26,1,.56,2.08.89,3.11.15.47.31.95.48,1.41l.18.48a2.59,2.59,0,0,0,.27.57.5.5,0,0,0,.92-.35,3.46,3.46,0,0,0-.18-.61c-.1-.3-.2-.59-.29-.89-.22-.74-.43-1.48-.62-2.22-.39-1.49-.72-3-1-4.53-.57-3-1-6-1.25-9.09,0,.06,0,.12,0,.18-.37-3.91-.58-7.83-.78-11.74-.1-2-.2-3.93-.3-5.89-.1-2.14-.17-4.28-.21-6.42-.16-8.53.21-17.06.87-25.56.33-4.26.74-8.51,1.21-12.76s1-8.53,1.48-12.79.91-8.55,1.22-12.84c.15-2.08.24-4.15.34-6.23.09-1.86.21-3.73.28-5.59a37.21,37.21,0,0,0-1.08-12.1,11,11,0,0,0-.49-1.05.48.48,0,0,0-.22-.06Z"/><path class="cls-5" d="M20,53.87a.25.25,0,0,0,.23.27l.22,0h0a10.56,10.56,0,0,1,2.26.79h0a14.81,14.81,0,0,1,3,2.1h0l0,0h0l0,0h0a33.83,33.83,0,0,1,4.44,5.12c.65.88,1.27,1.77,1.91,2.65l2.64,3.64C38.37,73.43,41.9,78.33,45.76,83A127,127,0,0,0,57.45,95.31q3.14,2.89,6.5,5.54t6.87,4.9c1.18.77,2.36,1.52,3.52,2.3l1.73,1.19c.62.44,1.24.87,1.9,1.25a.47.47,0,0,0,.55,0l.08-.09c-.14-.34-.3-.66-.48-1l0-.07-.5-.44a13,13,0,0,0-1.12-.83c-.81-.57-1.66-1.09-2.5-1.61s-1.69-1-2.53-1.57-1.59-1.05-2.38-1.6a98.46,98.46,0,0,1-8.94-7.12l0,0A136.9,136.9,0,0,1,48.16,84C44.24,79.5,40.61,74.77,37,70q-2.19-2.91-4.39-5.81c-1.13-1.49-2.23-3-3.44-4.44a23.82,23.82,0,0,0-4.06-3.94,13.5,13.5,0,0,0-2.32-1.38,10.7,10.7,0,0,0-2.56-.8h0a.25.25,0,0,0-.23.23Z"/><path class="cls-5" d="M22.72,55h0Z"/><polygon class="cls-5" points="25.8 57.1 25.79 57.09 25.8 57.1 25.8 57.1 25.8 57.1"/><polygon class="cls-5" points="25.84 57.13 25.83 57.13 25.84 57.13 25.84 57.13 25.84 57.13"/><polygon class="cls-5" points="22.74 54.98 22.74 54.98 22.74 54.98 22.74 54.98 22.74 54.98 22.74 54.98"/><path class="cls-5" d="M124.86,138.54a.25.25,0,0,0,.12.33,38.31,38.31,0,0,0,6.9,2.91,32.4,32.4,0,0,0,7.46,1.37,23.39,23.39,0,0,0,11.06-1.81,32.07,32.07,0,0,0,3.53-1.76.23.23,0,0,0,.06-.33.22.22,0,0,0-.15-.1.25.25,0,0,0-.18,0l-.89.49.05,0c-.85.45-1.71.87-2.59,1.24a18.66,18.66,0,0,1-2.73.88h.07a30.54,30.54,0,0,1-7.69.73h0a32.34,32.34,0,0,1-4.18-.44,34.79,34.79,0,0,1-4.34-1.05h0a35.76,35.76,0,0,1-6.21-2.6l-.1,0a.26.26,0,0,0-.23.14Zm15,4h0ZM131.42,141h0Z"/></g></g></svg>