<svg width="1440" height="180" viewBox="0 0 1440 180" fill="none" xmlns="http://www.w3.org/2000/svg">
<path fill-rule="evenodd" clip-rule="evenodd" d="M0 0L61.4187 7.41463C258.883 25.9512 278.035 30.2764 436.535 56.2276C595.035 82.1789 792.5 126.358 951 137.48C1109.5 148.602 1268 101.024 1426.5 82.4878C1585 63.9512 1743.5 49.122 1822.75 41.7073L1902 34.2927V190H1822.75C1743.5 190 1585 190 1426.5 190C1268 190 1109.5 190 951 190C792.5 190 634 190 475.5 190C317 190 158.5 190 79.25 190H0V0Z" fill="#F5F5F5"/>
</svg>
