<svg width="1768" height="130" viewBox="0 0 1768 130" fill="none" xmlns="http://www.w3.org/2000/svg">
<path fill-rule="evenodd" clip-rule="evenodd" d="M0 4.46776H73.6667C265.851 4.46776 355 70.5 511.5 47C661.383 24.4936 736.667 40.3544 884 51.1774C1031.33 62.0004 1210.27 4.46776 1347.84 4.46777C1495.18 -13.5705 1620.67 29.3177 1694.33 22.1024L1768 22.1024V130H1694.33C1620.67 130 1473.33 130 1326 130C1178.67 130 1031.33 130 884 130C736.667 130 589.333 130 442 130C294.667 130 147.333 130 73.6667 130H0V4.46776Z" fill="#F5F5F5"/>
<path fill-rule="evenodd" clip-rule="evenodd" d="M0 4.46776H73.6667C265.851 4.46776 355 70.5 511.5 47C661.383 24.4936 736.667 40.3544 884 51.1774C1031.33 62.0004 1210.27 4.46776 1347.84 4.46777C1495.18 -13.5705 1620.67 29.3177 1694.33 22.1024L1768 22.1024V130H1694.33C1620.67 130 1473.33 130 1326 130C1178.67 130 1031.33 130 884 130C736.667 130 589.333 130 442 130C294.667 130 147.333 130 73.6667 130H0V4.46776Z" fill="#F5F5F5"/>
</svg>
