<svg xmlns="http://www.w3.org/2000/svg" viewBox="0 0 172.91 225.85"><defs><style>.cls-1{fill:#e8ddcd;}.cls-2{fill:#cca763;}.cls-3{fill:#c1bcb4;}.cls-4{fill:#f9c39d;}.cls-5{fill:#deae8c;}.cls-6{fill:#eab894;}.cls-7{fill:#db8780;}.cls-8{fill:#372533;}.cls-9{fill:#cb9f80;}.cls-10{fill:#2b2a29;}.cls-11{fill:#e1f701;}.cls-12{fill:#357c7f;}.cls-13{fill:#ff074f;}.cls-14{fill:#432d3e;}.cls-15{fill:#f6f3e9;}.cls-16{fill:#e4e4e4;}</style></defs><title>Fichier 7</title><g id="Calque_2" data-name="Calque 2"><g id="OBJECTS"><path class="cls-1" d="M73.49.17a45.09,45.09,0,0,0-5.85.38A42.59,42.59,0,0,0,60.85,2,46.24,46.24,0,0,0,48.79,7.82a64.65,64.65,0,0,0-10.36,8.7,107.45,107.45,0,0,0-9,10.52c-.7.93-1.39,1.86-2.08,2.8l-.25.34c-.51.7-1,1.4-1.5,2.11-.79,1.15-1.53,2.37-2.25,3.54l-.09.14-.67,1.11c-1.67,2.76-3.4,5.62-5.26,8.32a50.17,50.17,0,0,1-6,7.44A22,22,0,0,1,7,56.18a13,13,0,0,1-2.78,1.18,10,10,0,0,1-2.4.34,8.71,8.71,0,0,1-1-.07h0a.72.72,0,0,0-.72,1,51.4,51.4,0,0,0,.71,8.81,21.78,21.78,0,0,0,3.05,8.14.76.76,0,0,0,.63.35.69.69,0,0,0,.28-.06.72.72,0,0,0,.24,0,20.31,20.31,0,0,0,3.23-.58,29.47,29.47,0,0,0,3.62-1.2,22.35,22.35,0,0,0,3.35-1.67,15.82,15.82,0,0,0,1.42-1l.09-.08c-.06.46-.13.92-.21,1.38a20.49,20.49,0,0,1-1.7,4.89l0,0a23,23,0,0,1-3,4.44l-.4.43-.14.15-.09.1a.73.73,0,0,0-.25.93,17.49,17.49,0,0,0,2.35,3.57,24.72,24.72,0,0,0,3,3c1.1.93,2.28,1.8,3.39,2.61,1.34,1,2.55,1.84,3.69,2.62a77.28,77.28,0,0,0,8.07,4.86,48.5,48.5,0,0,0,8.7,3.56,36.46,36.46,0,0,0,4.53,1,33.1,33.1,0,0,0,4.45.36H50a59.86,59.86,0,0,0,7.81-.55,85.85,85.85,0,0,0,17.7-4.43c2.72-1,5.42-2.08,8-3.3a60.68,60.68,0,0,0,7-3.85,62.61,62.61,0,0,0,12.3-10.35,60.55,60.55,0,0,0,9.25-13.19,55.43,55.43,0,0,0,3.16-7.38,51.26,51.26,0,0,0,2-7.77,55.68,55.68,0,0,0,.78-8.13,54.35,54.35,0,0,0-.45-8.45,37.73,37.73,0,0,0-5.51-15.71,29.52,29.52,0,0,0-2.19-2.95,34.75,34.75,0,0,0-2.47-2.6,46.42,46.42,0,0,0-6.18-5,40.31,40.31,0,0,0-7-3.82,22.3,22.3,0,0,0-7-1.76c-.3,0-.61,0-.91,0a.83.83,0,0,0-.39.09L85.74,6,85.56,6c-.47-.24-.92-.52-1.37-.8L83.9,5a24.19,24.19,0,0,0-3.31-1.7,22.47,22.47,0,0,0-3.14-1.05A26.2,26.2,0,0,0,74,1.62l-.16,0-.18,0c.36,0,.72,0,1.08,0h0a.8.8,0,0,0,.52-.14A.73.73,0,0,0,75.58,1a.75.75,0,0,0-.14-.52A.69.69,0,0,0,75,.19l-1.47,0ZM40.54,16.43l0,0,.07,0-.47.45.33-.33h0l0,0h0Z"/><path class="cls-1" d="M102.76,28a42.12,42.12,0,0,1-6.86,5,98.69,98.69,0,0,1-13.65,6.33C77.6,41.1,72.91,42.84,68.4,45l.06,0-3.33,1.61-3.35,1.56q-3.35,1.53-6.75,3Q52,52.37,49,53.56a29.68,29.68,0,0,1-4.72,1.94c-1,.34-2.1.65-3.16,1l-.35.1-2.09.7q-2.66.87-5.35,1.67c-1,.35-2.09.69-3.15,1-1.42.43-2.85.83-4.29,1.14q-1.07.23-2.14.41L22.31,62c.28.14.57.27.87.39a13.45,13.45,0,0,0,1.41.47h-.06a14.22,14.22,0,0,0,1.92.37,17.55,17.55,0,0,0,1.92.11,24.85,24.85,0,0,0,3.81-.35.24.24,0,0,1,.25.33,16.36,16.36,0,0,1-2.62,4.24c-1.11,1.34-2.33,2.58-3.56,3.81-.63.63-1.26,1.26-1.88,1.91s-1.18,1.25-1.72,1.92a34.78,34.78,0,0,0-3.1,4.45l0-.06a31.09,31.09,0,0,0-1.74,3.41,28.74,28.74,0,0,0-1.28,3.6l0-.06A22.79,22.79,0,0,0,16,89.42c0,.18,0,.36-.07.55l.34.29c1.08.91,2.22,1.76,3.39,2.61,1.41,1,2.62,1.89,3.7,2.62a75.52,75.52,0,0,0,8.07,4.86,48.06,48.06,0,0,0,8.71,3.56,36.68,36.68,0,0,0,4.53,1,33.85,33.85,0,0,0,4.45.36H50a60.53,60.53,0,0,0,7.81-.55,86.06,86.06,0,0,0,17.7-4.44c2.71-1,5.41-2.08,8-3.31a60.33,60.33,0,0,0,7-3.85,62.41,62.41,0,0,0,12.3-10.35,60.47,60.47,0,0,0,9.26-13.19,55,55,0,0,0,2.79-6.36,43.16,43.16,0,0,0,.71-7.46,30.18,30.18,0,0,0-.18-3.32c-.06-.54-.13-1.08-.23-1.62-.06-.36-.13-.72-.22-1.08l0,.06a9.72,9.72,0,0,0-.51-1.35,16.89,16.89,0,0,0-.78-1.52l0,.05a10.79,10.79,0,0,0-1.51-2.09h0l0,0h0a3.38,3.38,0,0,0-.62-.5,1.93,1.93,0,0,0-.31-.14l-.23,0-.16,0-.13.06-.13.1a1.75,1.75,0,0,0-.25.32l0,0a3.78,3.78,0,0,0-.32.83l0-.06a8.32,8.32,0,0,0-.19,1,.24.24,0,0,1-.47,0,69.48,69.48,0,0,0-2-10l0,.06a57.2,57.2,0,0,0-1.89-5.71,41.9,41.9,0,0,0-1.73-3.84q-.54.55-1.12,1.06Z"/><circle class="cls-2" cx="112.25" cy="44.92"/><polygon class="cls-2" points="112.23 44.9 112.23 44.9 112.23 44.9 112.23 44.9 112.23 44.9 112.23 44.9"/><path class="cls-2" d="M112.24,44.9h0Z"/><path class="cls-2" d="M112.25,44.92l0,0,0,0Z"/><path class="cls-2" d="M110.93,44.24h0Z"/><path class="cls-3" d="M30.09,32.89A31.08,31.08,0,0,0,27,36.55c-1.05,1.45-2,3-3,4.48-2,3.25-3.95,6.58-6.17,9.71-.33.47-.67.93-1,1.38L17,52a32.9,32.9,0,0,1-5.83,6.12,18.48,18.48,0,0,1-3.67,2.18,17.22,17.22,0,0,1-1.88.66,16.59,16.59,0,0,1-1.91.41h-.1A.88.88,0,0,0,3,61.6a.8.8,0,0,0,0,1.14.78.78,0,0,0,.58.24c.41,0,.83-.06,1.24-.11a14.33,14.33,0,0,0,1.42-.27,13.13,13.13,0,0,0,2.48-.9A17.22,17.22,0,0,0,13,58.74a28.27,28.27,0,0,0,3.61-4.09c1.12-1.51,2.14-3.11,3.11-4.73,1.51-2.5,2.92-5.06,4.37-7.59a61.64,61.64,0,0,1,4.32-6.78h0a23.14,23.14,0,0,1,2-2.35.24.24,0,0,0,0-.34.25.25,0,0,0-.34,0ZM7.47,60.29l-.19.08.19-.08Z"/><path class="cls-3" d="M18.52,58.64a22.88,22.88,0,0,1-2,2.31,25.57,25.57,0,0,1-2.3,2l.06-.05a29.75,29.75,0,0,1-3.4,2.25A36.3,36.3,0,0,1,7.07,67h0L7,67H7l-.62.25a.55.55,0,0,0-.31.24.52.52,0,0,0,.19.71.55.55,0,0,0,.52,0q.83-.4,1.65-.83c.59-.3,1.17-.63,1.75-1a33.44,33.44,0,0,0,3.18-2.07A28.75,28.75,0,0,0,16.2,62a25.76,25.76,0,0,0,2.65-3,.26.26,0,0,0,.07-.17.24.24,0,0,0-.07-.17.26.26,0,0,0-.18-.07.19.19,0,0,0-.16.07ZM7,67l.06,0h0L7,67Z"/><path class="cls-3" d="M112,30.43a.29.29,0,0,0-.18.36,39,39,0,0,1,1.52,5.64l0-.11q.33,1.73.57,3.48c.16,1.17.26,2.35.32,3.53s.09,2.37.08,3.56-.09,2.29-.17,3.44c-.14,1.69-.35,3.37-.61,5s-.59,3.51-1,5.25a.9.9,0,0,0,.68,1.06.89.89,0,0,0,.68-.13.94.94,0,0,0,.38-.56,34.59,34.59,0,0,0,1-3.71,35,35,0,0,0,.52-3.83c.11-1.31.17-2.64.15-4s-.08-2.59-.19-3.88A56.25,56.25,0,0,0,114.57,38a60.38,60.38,0,0,0-2.2-7.35.29.29,0,0,0-.27-.19l-.09,0Z"/><path class="cls-4" d="M78.75,75.27h-.1c-1.51,0-3,.14-4.51.28l-1.78.15a.74.74,0,0,0-.69.57.59.59,0,0,0-.08.34,17,17,0,0,1-.11,3.15,19.12,19.12,0,0,1-1.2,4.36l0,.1a24.88,24.88,0,0,1-3.08,5.19c-.42.53-.85,1-1.28,1.53a.75.75,0,0,0-.07.94.73.73,0,0,0,.07.19c.3.56.57,1.14.84,1.72l.08.18c.33.7.67,1.38,1,2.06q1,2,2.1,3.95c1.4,2.54,2.9,5.14,4.48,7.72,1.36,2.23,2.85,4.57,4.85,7.61,1.63,2.48,3.36,5,5.14,7.61s3.49,5,5.3,7.49l1.36,1.86,1.17,1.6.27.37c.5.7,1,1.41,1.58,2.09a10.86,10.86,0,0,0,2.33,2.16,5.14,5.14,0,0,0,2.81.88h.1a5.36,5.36,0,0,0,2.08-.51,4.93,4.93,0,0,0,1.48-1.07,8.15,8.15,0,0,0,1.87-3.51,20.22,20.22,0,0,0,.68-4.59,50.45,50.45,0,0,0-.61-9.57c-.41-2.83-1-5.68-1.54-8.13A62.81,62.81,0,0,0,99.35,99.2a22.57,22.57,0,0,0-4.49-6.74,12.82,12.82,0,0,0-1.58-1.35A13.31,13.31,0,0,0,91.33,90l-.92-.44a17.21,17.21,0,0,1-3-1.66,8.09,8.09,0,0,1-1.21-1.21,8.42,8.42,0,0,1-.89-1.48,8.13,8.13,0,0,1-.51-1.87,13.74,13.74,0,0,1,.07-3.3s0-.06,0-.06,0,0,0,0h0c.14-.8.28-1.58.42-2.37l.06-.34a.77.77,0,0,0-.07-.55.72.72,0,0,0-.34-.3l-.09,0a14.87,14.87,0,0,0-1.43-.5,13.92,13.92,0,0,0-1.61-.34,19.72,19.72,0,0,0-3.07-.21Z"/><path class="cls-5" d="M78.65,75.25c-1.45,0-2.92.14-4.33.27h-.18l-.44,0-1.33.11a.78.78,0,0,0-.7.59.62.62,0,0,0-.08.35,16.59,16.59,0,0,1-.11,3.15q-.09.58-.21,1.16a33.07,33.07,0,0,0,6.32,1.45h0a21.83,21.83,0,0,0,2.51.14,18,18,0,0,0,2.53-.21h-.06a14,14,0,0,0,1.74-.39l.43-.13A17.29,17.29,0,0,1,84.91,80l0-.1.31-1.71.12-.65.06-.34a.79.79,0,0,0-.08-.56.73.73,0,0,0-.35-.31l-.09,0a13.83,13.83,0,0,0-1.44-.5,15.14,15.14,0,0,0-1.61-.35,19.79,19.79,0,0,0-3.07-.21Z"/><path class="cls-5" d="M77.57,82.38h0Z"/><path class="cls-4" d="M75.28,13.27c-1.28,0-2.6.06-3.92.19a39.53,39.53,0,0,0-5.33.9,34,34,0,0,0-9.6,3.85A26.11,26.11,0,0,0,49,24.81a23.65,23.65,0,0,0-4.27,9.35,29.41,29.41,0,0,0-.56,5.79,44.89,44.89,0,0,0,.39,6.37,48,48,0,0,0,1.71,7.85A7.07,7.07,0,0,0,43,56.29a6.67,6.67,0,0,0-1.46,3.59A9.7,9.7,0,0,0,42,64a11.62,11.62,0,0,0,2.06,3.7,9.47,9.47,0,0,0,5,3.29,7.08,7.08,0,0,0,1.69.2A8.19,8.19,0,0,0,52.22,71a8.78,8.78,0,0,0,2.87-1.13,32.54,32.54,0,0,0,4.34,4,30.49,30.49,0,0,0,5.44,3.31,32.61,32.61,0,0,0,11.75,2.93c.84.05,1.69.08,2.53.08a37.67,37.67,0,0,0,9.71-1.25,30.76,30.76,0,0,0,10.86-5.18,24.31,24.31,0,0,0,7.52-9.35A21,21,0,0,0,108.92,58a31.48,31.48,0,0,0-.1-7,62.24,62.24,0,0,0-3.73-14.28c-1.47-3.94-3.2-7.84-4.87-11.61l-.5-1.12a.78.78,0,0,0-.42-.41,12.38,12.38,0,0,0-2.66-3.37,20,20,0,0,0-3.89-2.78,31.87,31.87,0,0,0-5.64-2.42A38,38,0,0,0,82,13.82a41.16,41.16,0,0,0-5.34-.53l-1.32,0Z"/><path class="cls-6" d="M71.36,13.44a38.73,38.73,0,0,0-5.33.9,34,34,0,0,0-9.6,3.85,26.31,26.31,0,0,0-7.49,6.6,23.66,23.66,0,0,0-4.27,9.36,29.63,29.63,0,0,0-.56,5.79,45.6,45.6,0,0,0,.39,6.38,47.68,47.68,0,0,0,1.72,7.85,7,7,0,0,0-3,1.78,19,19,0,0,0,4.49-.34h0c.38-.09.76-.18,1.13-.3s.64-.21,1-.34a20.86,20.86,0,0,0,1.95-.87l-.06,0a21.15,21.15,0,0,0,2.61-1.59,26.31,26.31,0,0,0,2.32-1.88h0a38.85,38.85,0,0,0,4.49-5c1.43-1.85,2.76-3.79,4.08-5.72.73-1.05,1.45-2.12,2.21-3.14s1.76-2.26,2.69-3.35C72,31.31,74,29.24,76,27.23c.88-.87,1.76-1.73,2.68-2.56l2.59-2.32h0A27.41,27.41,0,0,0,86,17.09h0a11.6,11.6,0,0,0,.71-1.3c.11-.25.22-.5.31-.75A38.08,38.08,0,0,0,82,13.8a41.29,41.29,0,0,0-5.34-.53l-1.33,0c-1.28,0-2.6.06-3.92.19Zm9.94,8.87,0,0,0,0Z"/><path class="cls-6" d="M54.46,66.53h0Z"/><path class="cls-6" d="M54.51,66.53h0Z"/><path class="cls-6" d="M54.47,66.53h0c-.13.14-.22.31-.34.46a3.44,3.44,0,0,1-.61.57,10.38,10.38,0,0,1-1,.62,7.85,7.85,0,0,1-.89.43,7.42,7.42,0,0,1-2,.51,6.69,6.69,0,0,1-1.78,0A7.58,7.58,0,0,1,46,68.58a9.33,9.33,0,0,1-1.61-.9c-.32-.23-.63-.46-.92-.71.18.26.37.5.56.74A9.49,9.49,0,0,0,49,71a7,7,0,0,0,1.7.2,8.43,8.43,0,0,0,1.48-.14,8.81,8.81,0,0,0,2.88-1.13,31.47,31.47,0,0,0,4.32,4,30.78,30.78,0,0,0,5.45,3.31,31.36,31.36,0,0,0,6.63,2.22h0a34.78,34.78,0,0,0,5.12.7c.87.06,1.71.08,2.53.08h1.1c1.2,0,2.41-.13,3.6-.25a36.84,36.84,0,0,0,5-1,33.88,33.88,0,0,0,5.35-1.9q-1.36.43-2.75.74a45.42,45.42,0,0,1-11,1.11,39.15,39.15,0,0,1-7.19-.81,32.66,32.66,0,0,1-6.81-2.22,27.58,27.58,0,0,1-6.09-3.78,11.21,11.21,0,0,1-1.1-1c-.3-.33-.58-.68-.87-1-.65-.82-1.29-1.66-2-2.42l0,0a5.86,5.86,0,0,0-1-.85,3.44,3.44,0,0,0-.68-.28h0l-.24,0Z"/><path class="cls-7" d="M83.27,61.8a5.54,5.54,0,0,0-.89.15c-.2,0-.41.07-.62.1a2.52,2.52,0,0,0-.69.23,1.3,1.3,0,0,0-.64.78.54.54,0,0,0-.3.14.51.51,0,0,0-.16.36.55.55,0,0,0,.14.36,6.13,6.13,0,0,0,2.41,1.78,13.32,13.32,0,0,0,3.13.92,15.91,15.91,0,0,0,3.16.27,5.17,5.17,0,0,0,1.32-.2,2.13,2.13,0,0,0,.49-.21,1.43,1.43,0,0,0,.44-.43,1.05,1.05,0,0,0,.16-.53,1.15,1.15,0,0,0-.07-.45,2.45,2.45,0,0,0-.83-1A10.82,10.82,0,0,0,87,62.33a11.2,11.2,0,0,0-1.77-.43,9.05,9.05,0,0,0-1.42-.12l-.55,0Z"/><path class="cls-7" d="M80.18,63.24a.23.23,0,0,0,0,.33,7.1,7.1,0,0,0,.93.8,8.59,8.59,0,0,0,1.3.78,14.39,14.39,0,0,0,3,1.05,18.21,18.21,0,0,0,3.19.49,10.54,10.54,0,0,0,1.45,0c.23,0,.45-.05.67-.09l.32-.07c.14,0,.27-.09.4-.12a.34.34,0,0,0-.17-.66h-.07l-.92.08c-.39,0-.79.05-1.18.06a16.49,16.49,0,0,1-2.56-.15h.09a15,15,0,0,1-3.7-1,8.82,8.82,0,0,1-2-1.14h0c-.14-.12-.28-.25-.41-.38a.23.23,0,0,0-.33,0Zm.77.4,0,0,0,0Z"/><path class="cls-8" d="M73.28,40a4.65,4.65,0,0,0-1.25.42A4.17,4.17,0,0,0,70.32,42a6.12,6.12,0,0,0-.77,2.26,13.93,13.93,0,0,0,.3,5.14.71.71,0,0,0,.87.5.72.72,0,0,0,.5-.87c-.1-.45-.19-.89-.25-1.34a12.28,12.28,0,0,1-.05-3,6.87,6.87,0,0,1,.37-1.42,4.4,4.4,0,0,1,.45-.79,3.73,3.73,0,0,1,.5-.51,4,4,0,0,1,.59-.35,4.37,4.37,0,0,1,.91-.24,5.56,5.56,0,0,1,1.15,0,5.16,5.16,0,0,1,1,.28,5.67,5.67,0,0,1,.92.54,6.83,6.83,0,0,1,1,1,8.46,8.46,0,0,1,1,1.7c.11.28.21.57.3.86a9.39,9.39,0,0,1,.26,1.2.67.67,0,0,0,.33.42.73.73,0,0,0,.55.07.72.72,0,0,0,.43-.33.75.75,0,0,0,.07-.54c0-.28-.09-.56-.16-.84s-.13-.49-.21-.73a10.66,10.66,0,0,0-.62-1.47,7.34,7.34,0,0,0-1.93-2.38,5.65,5.65,0,0,0-1.37-.81,5.73,5.73,0,0,0-1.55-.38l-.48,0a7.09,7.09,0,0,0-1.1.1Z"/><path class="cls-8" d="M97,34.61a4.41,4.41,0,0,0-2.74,2.6,9.17,9.17,0,0,0-.28,5.58.71.71,0,0,0,.87.5.72.72,0,0,0,.5-.87c-.07-.3-.12-.61-.17-.91a9.32,9.32,0,0,1,0-2.28,6.56,6.56,0,0,1,.36-1.37,5.08,5.08,0,0,1,.52-.92,4.06,4.06,0,0,1,.56-.57,3.39,3.39,0,0,1,.52-.3,3,3,0,0,1,.56-.16,3,3,0,0,1,.55,0,3,3,0,0,1,.58.16,3.62,3.62,0,0,1,.6.36,4.78,4.78,0,0,1,.65.67,6.61,6.61,0,0,1,.72,1.28,11,11,0,0,1,.58,2.15.67.67,0,0,0,.33.43.71.71,0,0,0,.55.07.72.72,0,0,0,.43-.33.76.76,0,0,0,.07-.55,7.9,7.9,0,0,0-2.22-4.63,4.17,4.17,0,0,0-1.71-.94,3.38,3.38,0,0,0-.84-.1,3.67,3.67,0,0,0-1,.13Z"/><path class="cls-8" d="M94.61,55.48h-.23a5.74,5.74,0,0,0-1.31.26c-.46.14-.91.33-1.35.5l-.4.17A12.54,12.54,0,0,1,89,57.2a3.76,3.76,0,0,1-.6.05h-.21a13.76,13.76,0,0,1-2.28-.52l-.27-.08-.31-.09c-1-.27-1.94-.56-2.93-.76a12.53,12.53,0,0,0-1.48-.2l-.48,0a5.34,5.34,0,0,0-.95.08,3.14,3.14,0,0,0-1.17.46,2.53,2.53,0,0,0-.84,1,.5.5,0,0,0-.05.23l0,.09a4.17,4.17,0,0,0-.17,1.55,7.46,7.46,0,0,0,.26,1.49A10,10,0,0,0,78,61.89a8.93,8.93,0,0,0,1.89,2.73,9.79,9.79,0,0,0,2.69,1.85,12.69,12.69,0,0,0,3.19,1,12.85,12.85,0,0,0,2.31.21,10.28,10.28,0,0,0,4.33-.9,8.62,8.62,0,0,0,2.4-1.64,8.42,8.42,0,0,0,1.64-2.3,12.18,12.18,0,0,0,.84-2.18,6.64,6.64,0,0,0,.26-2.45,3.49,3.49,0,0,0-.27-1,2.84,2.84,0,0,0-.61-.89,3,3,0,0,0-1-.61,3,3,0,0,0-1.09-.19Zm-10.4,6.95h.36a9.83,9.83,0,0,1,1.94.19h0l.09,0a8.86,8.86,0,0,1,1.91.71,7.38,7.38,0,0,1,1.36.95,6.09,6.09,0,0,1,.85,1,5.51,5.51,0,0,1,.48.95,11.6,11.6,0,0,1-1.33.35,11.36,11.36,0,0,1-1.87.15q-.46,0-.92,0A13.72,13.72,0,0,1,83.86,66a11.2,11.2,0,0,1-2.33-1.22l-.06,0h0l0,0h0a13.71,13.71,0,0,1-1-.95l.43-.3a6.68,6.68,0,0,1,1.47-.68,8.6,8.6,0,0,1,1.93-.35Z"/><path class="cls-8" d="M77.78,56.67a2.82,2.82,0,0,0-.28.47,1.72,1.72,0,0,0-.13.53.47.47,0,0,0,.43.51.48.48,0,0,0,.51-.43v-.07a2,2,0,0,1,.1-.26l.13-.19a.47.47,0,0,0-.11-.66.47.47,0,0,0-.27-.09.5.5,0,0,0-.39.2Z"/><path class="cls-8" d="M77.81,56.69l-.17.19a.9.9,0,0,0-.14.21,1.69,1.69,0,0,0-.19.6.48.48,0,0,0,.43.51.48.48,0,0,0,.51-.43v-.09l.05-.13.07-.1,0,0a.5.5,0,0,0,.17-.33.47.47,0,0,0-.1-.34.49.49,0,0,0-.33-.17h0a.45.45,0,0,0-.3.11Zm.45,1v0Z"/><path class="cls-8" d="M77.5,57.11a2,2,0,0,0-.16.54,2.6,2.6,0,0,0,0,.56.47.47,0,0,0,.55.39.5.5,0,0,0,.31-.19.5.5,0,0,0,.08-.36V58a1.29,1.29,0,0,1,0-.22,2,2,0,0,1,.12-.34.48.48,0,0,0-.28-.61l-.16,0a.5.5,0,0,0-.45.31Z"/><path class="cls-9" d="M86.36,37a.72.72,0,0,0-.62.8c.19.94.31,1.9.48,2.85A16.82,16.82,0,0,0,87,43.9a6.33,6.33,0,0,0,.71,1.33,3.31,3.31,0,0,0,1.18,1,3.58,3.58,0,0,0,1.44.34c.32,0,.64,0,1,0h.4a4.49,4.49,0,0,1,.91.1,2.52,2.52,0,0,1,.36.16l.21.17a2.92,2.92,0,0,1,.26.35,3.15,3.15,0,0,1,.18.43,3.05,3.05,0,0,1,.06.55,3.64,3.64,0,0,1-.09.59,4.3,4.3,0,0,1-.36.82A3.71,3.71,0,0,1,91.94,51a3.74,3.74,0,0,1-.65.26,3.22,3.22,0,0,1-.5.06,2.68,2.68,0,0,1-.5-.08.73.73,0,0,0-.53,0,.71.71,0,0,0-.39.92.68.68,0,0,0,.37.38,3.71,3.71,0,0,0,.8.18,3.32,3.32,0,0,0,.92-.06A4.35,4.35,0,0,0,93.08,52a5.05,5.05,0,0,0,1.24-1.26,5,5,0,0,0,.74-1.66A3.29,3.29,0,0,0,94,45.8a3,3,0,0,0-1.58-.6,13.84,13.84,0,0,0-1.67,0,4.77,4.77,0,0,1-.93-.11,2.7,2.7,0,0,1-.4-.17,2.63,2.63,0,0,1-.33-.27,3.91,3.91,0,0,1-.41-.57A8.82,8.82,0,0,1,88,42.24c-.2-.8-.35-1.61-.48-2.42s-.22-1.48-.37-2.21a.74.74,0,0,0-.26-.47.72.72,0,0,0-.45-.16ZM88,42.13l0,.11,0-.11Zm1.35,2.7,0,0,0,0Zm1.45.34h0Z"/><path class="cls-10" d="M76.46,27.26a11.85,11.85,0,0,0-3.81,1.25,14.2,14.2,0,0,0-3.11,2.13,18,18,0,0,0-4.36,6,.78.78,0,0,0,.33,1,.77.77,0,0,0,1-.33,13.41,13.41,0,0,1,1.12-2,12.91,12.91,0,0,1,2-2.22,15,15,0,0,1,3-1.8,20.37,20.37,0,0,1,2-.76c.75-.24,1.54-.4,2.29-.65a1.41,1.41,0,0,0-.35-2.76Z"/><path class="cls-10" d="M91.29,24.53a9.09,9.09,0,0,1,3.07-.07,10.89,10.89,0,0,1,2.79.75,13.83,13.83,0,0,1,4.69,3.25.6.6,0,0,1,0,.83.59.59,0,0,1-.83,0,10.28,10.28,0,0,0-1.31-1.12,9.89,9.89,0,0,0-2-1.08,11.53,11.53,0,0,0-2.59-.55,15.61,15.61,0,0,0-1.64,0c-.61,0-1.21.1-1.82.11a1.08,1.08,0,0,1-.45-2.08l.1,0Z"/><path class="cls-4" d="M33.58,160.86h0a9.08,9.08,0,0,0-3.14.73,17,17,0,0,0-3.25,1.77,20.57,20.57,0,0,0-2.89,2.39,13.18,13.18,0,0,0-2,2.54.74.74,0,0,0-.32.51.69.69,0,0,0,.13.53,60.13,60.13,0,0,0,11.32,10.77c1.81,1.38,3.84,2.82,6.38,4.53l1.67,1.12,1.67,1.12A31.18,31.18,0,0,0,46.74,189a.62.62,0,0,0,.27.06.75.75,0,0,0,.67-.44.53.53,0,0,0,0-.12l.07-.07a11.09,11.09,0,0,0,2-4,8,8,0,0,0,.05-4.41.7.7,0,0,0-.29-.38l-.12-.13c-.88-.82-1.73-1.65-2.53-2.47a136.86,136.86,0,0,1-12.68-15.82.6.6,0,0,0-.15-.15.72.72,0,0,0-.52-.22Z"/><path class="cls-4" d="M150.39,11.65a3.22,3.22,0,0,0-1.07.81l0,.06-.1.09a4.73,4.73,0,0,0-.46.64l-.14-.1a.26.26,0,0,1-.16-.06.2.2,0,0,1,0-.06,2.8,2.8,0,0,0-.64-.24,2.55,2.55,0,0,0-.66-.08,3,3,0,0,0-1.14.23,3.41,3.41,0,0,0-1.42,1.11,3.92,3.92,0,0,0-.46.84,2.25,2.25,0,0,0-.09.27,1.68,1.68,0,0,0-.47-.16,2.09,2.09,0,0,0-.43,0,1.92,1.92,0,0,0-1,.28,2.75,2.75,0,0,0-.92,1,5.88,5.88,0,0,0-.54,1.51,10.79,10.79,0,0,0-.19,3.48,9.08,9.08,0,0,0,.29,1.6,4.61,4.61,0,0,0,.36.92,4.53,4.53,0,0,0-.44.34,4.18,4.18,0,0,0-.58.66,2.46,2.46,0,0,0-.46,1.39,2.58,2.58,0,0,0,.38,1.35A3.92,3.92,0,0,0,141,28.63a6.48,6.48,0,0,0,3,1.22,7.06,7.06,0,0,0,1,.08,5.51,5.51,0,0,0,.74,0,5.44,5.44,0,0,0,1.22-.3,6.8,6.8,0,0,0,3.18,1.78,7.91,7.91,0,0,0,2,.29h.15a5.46,5.46,0,0,0,1.08-.11l.2.26a20.62,20.62,0,0,1,2.59,4.52,33,33,0,0,1,2.1,8v.1a45.49,45.49,0,0,1,0,11.78l0-.08a34.78,34.78,0,0,1-2.19,8.45,17.81,17.81,0,0,1-.85,1.78,17.4,17.4,0,0,1-1.29,2A21.31,21.31,0,0,1,151.47,71a.7.7,0,0,0-.51.68,13,13,0,0,0,1,4,21.45,21.45,0,0,0,2.31,4.23,20.27,20.27,0,0,0,3.07,3.52,11.63,11.63,0,0,0,3.63,2.31.53.53,0,0,0,.18,0l.19,0a.72.72,0,0,0,.4.11.87.87,0,0,0,.37-.09,14.29,14.29,0,0,0,4.3-3.34,20,20,0,0,0,3.07-4.73A36.87,36.87,0,0,0,172.54,66a52.72,52.72,0,0,0,.12-11.3,68.15,68.15,0,0,0-4-16.71c-.88-2.44-1.94-5.05-3.24-8q-.87-2-1.79-3.92c-.38-.81-.76-1.62-1.15-2.43a53.47,53.47,0,0,0-3.87-6.58A27.31,27.31,0,0,0,156,13.89a13,13,0,0,0-1.28-1.19,7.16,7.16,0,0,0-1.41-.92,4.41,4.41,0,0,0-1.48-.41h-.22a3.14,3.14,0,0,0-1.26.29Z"/><path class="cls-5" d="M145.1,22.87a14.87,14.87,0,0,0-1.61.19,8,8,0,0,0-1.31.31.23.23,0,0,0-.11.31.24.24,0,0,0,.31.11l.1,0a14.16,14.16,0,0,1,3.07-.46h-.06a11.3,11.3,0,0,1,2.81.19h0a5.41,5.41,0,0,1,1.28.46l-.06,0a3,3,0,0,1,.53.36,2.49,2.49,0,0,1,.33.38,2.23,2.23,0,0,1,.2.41,2.36,2.36,0,0,1,.09.48,3.6,3.6,0,0,1-.08.82,4.2,4.2,0,0,1-.32.86A3.46,3.46,0,0,1,149,28.52a6.12,6.12,0,0,1-1.19.54,9.66,9.66,0,0,1-2.25.37h0a12.43,12.43,0,0,1-2.77-.23.24.24,0,0,0-.26.21.22.22,0,0,0,0,.13l.63.2a15.22,15.22,0,0,0,2.05.21,9.76,9.76,0,0,0,2.66-.24,4.93,4.93,0,0,0,2.2-1.15,3.3,3.3,0,0,0,.7-.94,4.15,4.15,0,0,0,.39-1.29,2.74,2.74,0,0,0-.36-1.87,3.07,3.07,0,0,0-1.38-1.11,5.17,5.17,0,0,0-.94-.31,9.38,9.38,0,0,0-1.12-.18c-.37,0-.75-.05-1.12-.05s-.77,0-1.16,0Zm5.48,3.44a.11.11,0,0,1,0,0v0Zm-.84,1.63,0,0,0,0Zm-.64.54h0Z"/><path class="cls-5" d="M148.32,23.5h0Z"/><path class="cls-5" d="M147.85,29.05h0Z"/><polygon class="cls-5" points="145.58 29.43 145.59 29.43 145.58 29.43 145.58 29.43 145.58 29.43"/><path class="cls-5" d="M149,12.82l-.08.09,0,0,0,0a.25.25,0,0,1-.07.09h0a.18.18,0,0,1-.08.06c-.19.54-.34,1.09-.48,1.65a19.69,19.69,0,0,0-.42,2.54,14.32,14.32,0,0,0,0,2.64,6.85,6.85,0,0,0,.57,2.33,3.91,3.91,0,0,0,.55.88,3.27,3.27,0,0,0,.81.7,3.56,3.56,0,0,0,1.05.41,3,3,0,0,0,.57.07,2.35,2.35,0,0,0,.63-.07,2.55,2.55,0,0,0,1-.44,3.67,3.67,0,0,0,.83-.86,6.74,6.74,0,0,0,1-2.26,7,7,0,0,0,.24-2.1.24.24,0,0,0-.47,0,4.91,4.91,0,0,1,0,.62,7.93,7.93,0,0,1-.43,2v0a6.62,6.62,0,0,1-.67,1.36,4.29,4.29,0,0,1-.58.67,2.83,2.83,0,0,1-.58.4,2.72,2.72,0,0,1-.53.17,2.56,2.56,0,0,1-.53,0h.06a2.79,2.79,0,0,1-.68-.14,3.37,3.37,0,0,1-.67-.34h0l0,0h0a3.19,3.19,0,0,1-.51-.47,4.23,4.23,0,0,1-.47-.72,6.36,6.36,0,0,1-.5-1.53h0a12.67,12.67,0,0,1-.11-3.11s0,0,0,.07a20.78,20.78,0,0,1,.36-2.48,16.16,16.16,0,0,1,.55-2l0,.06,0-.12a.27.27,0,0,0,0-.19.23.23,0,0,0-.11-.14h0l-.09.09Zm5.51,6.49a.06.06,0,0,1,0,0v0Zm-5.16,3.59,0,0,0,0Zm0,0v0Zm3.45.37h0Zm-.52.36h0Z"/><circle class="cls-5" cx="149.89" cy="23.41"/><path class="cls-5" d="M148.4,20.71v0Z"/><path class="cls-5" d="M148.41,20.75a.16.16,0,0,0,0,0,.19.19,0,0,1,0,0Z"/><path class="cls-5" d="M149.89,23.41l0,0,0,0Z"/><path class="cls-5" d="M144.2,14.49l-.14.28a.26.26,0,0,1-.09.09,13.87,13.87,0,0,0-.54,4.16,10.2,10.2,0,0,0,.27,2.17,5.43,5.43,0,0,0,.85,1.92.24.24,0,0,0,.33.07.24.24,0,0,0,.07-.33,4.86,4.86,0,0,1-.41-.68,7,7,0,0,1-.47-1.51v.06a12,12,0,0,1-.14-3h0a13.5,13.5,0,0,1,.55-2.92.24.24,0,0,0-.18-.28h-.11Z"/><path class="cls-11" d="M89.72,87.88l-.17,0a.72.72,0,0,0-.21.1h-.11l-.17,0a.72.72,0,0,0-.43.33.69.69,0,0,0-.07.56A136.62,136.62,0,0,1,94,104.71a124.61,124.61,0,0,1,3.47,16.61c.23,1.69.42,3.43.57,5.15.08.92.14,1.85.2,2.77l-1-2.32c-.44-1-.87-2-1.35-2.91-.61-1.24-1.28-2.48-1.92-3.64s-1.32-2.33-2-3.54a120.54,120.54,0,0,0-9.5-13.53A119.6,119.6,0,0,0,68.1,88.37a.79.79,0,0,0-.53-.21.68.68,0,0,0-.36.11l-.14.06a.72.72,0,0,0-.33.43.78.78,0,0,0,.07.55l0,.11,0,.11-.06-.18c3.71,8.91,6.28,19.22,8.07,32.46,1,7.55,1.67,15.3,2.31,22.8l0,.23c.35,4,.67,7.69,1,11.42.25,2.52.55,5.07.85,7.54.17,1.48.35,3,.52,4.45a459.46,459.46,0,0,1,3,52.37v1.05a.73.73,0,0,0,.65.72.76.76,0,0,0,.52.17c12.1-.32,22.46-2.18,31.73-5.68a66.55,66.55,0,0,0,14.33-7.48,69,69,0,0,0,6.33-5,57.3,57.3,0,0,0,5.71-5.77,43.51,43.51,0,0,0,4.73-6.71.42.42,0,0,0,.05-.19.43.43,0,0,0,0-.18,99.85,99.85,0,0,0-4.54-19.16c-.92-2.71-2-5.64-3.36-9.23-1.1-2.87-2.3-5.84-3.67-9.08-2.49-5.88-5.24-11.88-8.18-17.84-1.56-3.17-3-6-4.51-8.62s-3.21-5.54-5-8.36c-1.56-2.46-3.32-5.06-5.37-8-.86-1.21-1.69-2.43-2.53-3.65l-1.65-2.41a73.07,73.07,0,0,0-9.78-12,27.66,27.66,0,0,0-8-5.35,1,1,0,0,0-.38-.1Z"/><path class="cls-12" d="M69.6,92.11a.72.72,0,0,0-.13,1q.88,1.11,1.79,2.19a.72.72,0,0,0,1,.13.72.72,0,0,0,.13-1c-.61-.72-1.21-1.45-1.79-2.19A.73.73,0,0,0,70,92a.7.7,0,0,0-.42.14Z"/><path class="cls-11" d="M73.46,96.12a.72.72,0,0,0-.13,1l1.08,1.41a.71.71,0,0,0,1.13-.87l-1.08-1.41a.72.72,0,0,0-1-.13Z"/><path class="cls-11" d="M76.21,99.67a.71.71,0,0,0-.27.46.76.76,0,0,0,.14.53,13,13,0,0,0,.89,1.25A.71.71,0,0,0,78.1,101a11.81,11.81,0,0,1-.89-1.25.68.68,0,0,0-.46-.27h-.1a.71.71,0,0,0-.44.15Z"/><path class="cls-11" d="M79.33,103.18a.71.71,0,0,0-.13,1c.28.35.57.7.84,1.07a.71.71,0,1,0,1.12-.87c-.27-.36-.55-.71-.84-1.07a.74.74,0,0,0-.57-.27.7.7,0,0,0-.43.14Z"/><path class="cls-11" d="M82,106.93a.72.72,0,0,0-.13,1q.61.69,1.2,1.39a.71.71,0,1,0,1.12-.87q-.59-.7-1.2-1.39a.79.79,0,0,0-.58-.27.68.68,0,0,0-.42.14Z"/><path class="cls-11" d="M85.21,111.11a.72.72,0,0,0-.13,1c.26.37.51.76.74,1.16a.67.67,0,0,0,.46.27.71.71,0,0,0,.53-.14.7.7,0,0,0,.27-.46.76.76,0,0,0-.14-.53c-.23-.4-.48-.78-.74-1.16a.67.67,0,0,0-.56-.28.72.72,0,0,0-.44.14Z"/><path class="cls-11" d="M88.55,116.45a.73.73,0,0,0-.27.46.74.74,0,0,0,.14.53l.91,1.39a.72.72,0,0,0,1,.13.73.73,0,0,0,.13-1l-.91-1.38a.65.65,0,0,0-.56-.28.73.73,0,0,0-.44.14Z"/><path class="cls-11" d="M91.21,120.54a.72.72,0,0,0-.38.93c.22.44.44.88.67,1.32a.74.74,0,0,0,.38.38.73.73,0,0,0,.55,0,.72.72,0,0,0,.38-.93c-.23-.44-.45-.88-.67-1.32a.76.76,0,0,0-.66-.44.69.69,0,0,0-.27.05Z"/><path class="cls-11" d="M93.2,124.76a.73.73,0,0,0-.27.46.76.76,0,0,0,.14.53l.81,1.26a.71.71,0,0,0,1.27-.33.77.77,0,0,0-.14-.54l-.81-1.26a.64.64,0,0,0-.55-.27.74.74,0,0,0-.45.14Z"/><path class="cls-11" d="M96,128.77a.71.71,0,0,0-.27.46.76.76,0,0,0,.14.53q.28.43.54.87l.33.59a.76.76,0,0,0,.38.38.71.71,0,0,0,.55,0,.7.7,0,0,0,.38-.38.68.68,0,0,0,0-.55q-.49-.91-1.05-1.78a.64.64,0,0,0-.55-.27.73.73,0,0,0-.44.14Z"/><path class="cls-11" d="M99.4,128.76c0,.4-.09.79-.15,1.18a.71.71,0,1,0,1.41.2c.06-.39.11-.78.15-1.18a.73.73,0,0,0-.6-.81h-.09a.71.71,0,0,0-.71.61Z"/><path class="cls-11" d="M100.05,123a.72.72,0,0,0-.47.27.78.78,0,0,0-.14.53,13.58,13.58,0,0,0,.17,1.82.71.71,0,1,0,1.41-.18,13.6,13.6,0,0,1-.17-1.82.68.68,0,0,0-.27-.47.72.72,0,0,0-.44-.15Z"/><path class="cls-11" d="M99.28,116.79a.71.71,0,0,0-.61.79c.08.48.15,1,.22,1.43a.71.71,0,1,0,1.41-.18c-.07-.48-.14-1-.22-1.43a.72.72,0,0,0-.7-.62Z"/><path class="cls-11" d="M98.17,111.17a.72.72,0,0,0-.47.27.68.68,0,0,0-.14.53,15.32,15.32,0,0,1,.36,1.82.72.72,0,0,0,.8.62.71.71,0,0,0,.61-.8,15.17,15.17,0,0,0-.36-1.82.77.77,0,0,0-.27-.47.73.73,0,0,0-.44-.15Z"/><path class="cls-11" d="M96.94,105.42a.72.72,0,0,0-.47.27.7.7,0,0,0-.14.53q.23.91.42,1.82a.75.75,0,0,0,.27.47.72.72,0,0,0,.53.14.72.72,0,0,0,.61-.8q-.19-.92-.42-1.82a.77.77,0,0,0-.27-.47.72.72,0,0,0-.44-.15Z"/><path class="cls-11" d="M95.18,100.56a.72.72,0,0,0-.38.38.75.75,0,0,0,0,.55c.14.42.27.84.39,1.26a.69.69,0,0,0,.38.38.71.71,0,0,0,.93-.38.77.77,0,0,0,0-.55c-.12-.42-.25-.84-.39-1.26a.68.68,0,0,0-.66-.43.69.69,0,0,0-.27.05Z"/><path class="cls-11" d="M93.35,95.48a.72.72,0,0,0-.38.93,8.82,8.82,0,0,1,.35,1c0,.13.06.25.08.38a.76.76,0,0,0,.27.47.72.72,0,0,0,.53.14.71.71,0,0,0,.61-.8,9.43,9.43,0,0,0-.53-1.77.72.72,0,0,0-.66-.44.69.69,0,0,0-.27.05Z"/><path class="cls-11" d="M91.09,90.44a.72.72,0,0,0-.38.93,20.57,20.57,0,0,0,.94,2,.78.78,0,0,0,.38.38.7.7,0,0,0,.55,0,.71.71,0,0,0,.38-.93,20.17,20.17,0,0,1-.94-2,.72.72,0,0,0-.66-.43.7.7,0,0,0-.27.05Z"/><circle class="cls-8" cx="50.89" cy="128.3"/><circle class="cls-8" cx="50.87" cy="128.3"/><path class="cls-8" d="M50.85,128.3h0Z"/><path class="cls-13" d="M141.47,66a9.27,9.27,0,0,0-2.68.83,13.8,13.8,0,0,0-2.38,1.56c-.59.46-1.15,1-1.71,1.44l-.47.41A26,26,0,0,1,132,71.94a56,56,0,0,1-9.58,5c-1.43.61-3,1.22-5,2-1.77.67-3.54,1.33-5.32,2h0c-4.51,1.58-9,2.8-12.89,3.79-.85.22-1.72.4-2.65.57l-1,.17-1.74.31a19,19,0,0,0-2.64.69l-.53.2-.84.46-.36.29,0,0-.52.47c-.13.2-.25.4-.37.61v.06l.06,0c.49.32,1,.63,1.45,1,.26.19.53.38.77.59l.23.2A28.42,28.42,0,0,1,94,92.56l.08.07A52.9,52.9,0,0,1,102.21,103c1.66,2.65,3.19,5.39,4.34,7.49,1.88,3.43,3.29,6.07,4.58,8.57,3.4,6.58,6.5,13.24,9.2,19.78,1.9,4.61,3.69,9.39,5.31,14.2s3.28,9.73,4.78,14.67v-.1l0-.09c3.62,12.05,5.37,21.4,5.64,30.26h0c0,1.06,0,2.13,0,3.19,0,1.89,0,3.86.16,5.78a.71.71,0,0,0,.72.6H137a.69.69,0,0,0,.24-.09.84.84,0,0,0,.24-.08l.16-.11a6.64,6.64,0,0,0,.6-.41.46.46,0,0,0,.1-.1l.09-.08.09-.08a14.77,14.77,0,0,0,1.15-1.16c.94-1,1.72-1.91,2.42-2.77a41.3,41.3,0,0,0,4.26-6.33,40.07,40.07,0,0,0,3-7,37.62,37.62,0,0,0,1.66-8,31.34,31.34,0,0,0-.37-8,36.69,36.69,0,0,0-2.22-7.6c-.48-1.21-1.05-2.47-1.68-3.74s-1.29-2.46-2-3.71c-1.49-2.66-3-5.24-4.28-7.42L138.3,147c-5-8.38-10.09-17.05-14.11-26.12l-.77-1.79c-.77-1.82-1.5-3.69-2.18-5.55a51.25,51.25,0,0,0,7-1,64.69,64.69,0,0,0,7.84-2.26,74.86,74.86,0,0,0,14.64-7.09,72.78,72.78,0,0,0,6.13-4.28,26.79,26.79,0,0,0,4.7-4.52,13.91,13.91,0,0,0,2.69-5.56,15.63,15.63,0,0,0-.25-7.32,20.35,20.35,0,0,0-3.73-7.27,22.68,22.68,0,0,0-5.19-4.68,23.28,23.28,0,0,0-6.59-3.07,17.56,17.56,0,0,0-4.79-.69,15.16,15.16,0,0,0-2.21.16Z"/><path class="cls-13" d="M65.92,87.58h-.05a6,6,0,0,0-1,.07c-.29,0-.58.1-.87.17a40,40,0,0,0-5.69,2.41c-1.39.7-2.77,1.45-4.11,2.18-1.13.62-2.26,1.23-3.41,1.82a140.65,140.65,0,0,0-14.56,8.47c-2.35,1.59-4.65,3.28-6.82,5-1.91,1.55-3.86,3.26-6,5.25a80.26,80.26,0,0,0-10.16,11.45,48.49,48.49,0,0,0-7,13.49,36.06,36.06,0,0,0-1.54,7.42,33.09,33.09,0,0,0-.08,5,47.83,47.83,0,0,0,1.64,9.94,35,35,0,0,0,1.74,5,21.86,21.86,0,0,0,2.48,4.33,12.29,12.29,0,0,0,3.34,3.14,8.48,8.48,0,0,0,1.89.88,8.84,8.84,0,0,0,2.29.41h.41a13,13,0,0,0,4.14-.79,28.58,28.58,0,0,0,5-2.34,38.13,38.13,0,0,0,5.06-3.48,35.83,35.83,0,0,0,4.52-4.34,23,23,0,0,0,3.26-4.8,15.14,15.14,0,0,0,1-2.51,10.93,10.93,0,0,0,.39-2.5,10.25,10.25,0,0,0-.28-2.64,23.31,23.31,0,0,0-.89-2.92c-.25-.68-.51-1.35-.77-2-.52-1.36-1.07-2.76-1.48-4.18-.11-.39-.21-.78-.3-1.17l0,.11h0a.61.61,0,0,1,0-.11,11.43,11.43,0,0,1-.26-2.77,7.57,7.57,0,0,1,.26-1.52,6.83,6.83,0,0,1,.62-1.37,9.4,9.4,0,0,1,1.4-1.64h0l0,0,0,0h0a16.91,16.91,0,0,1,3.28-2.18l-.09,0,.16-.09h0a30.72,30.72,0,0,1,7.21-2.42l.06,0,0,0c1.44-.28,2.9-.5,4.37-.64a17.73,17.73,0,0,1,1.34,3.62,39.63,39.63,0,0,1,.9,6.08c0,.6.09,1.2.14,1.8l.1,1.32c.05.68.12,1.37.18,2,0,.51.09,1,.14,1.54.42,5.08.61,10.09.55,14.91A168.66,168.66,0,0,1,57.09,178a128.11,128.11,0,0,1-3.73,18.68c-.17.59-.35,1.18-.53,1.77a39.72,39.72,0,0,0-1.53,6.21,13.55,13.55,0,0,0,0,4,10.46,10.46,0,0,0,.49,1.86,10.24,10.24,0,0,0,1,2A14.5,14.5,0,0,0,55,215.19a21.52,21.52,0,0,0,2.59,2.13,34.1,34.1,0,0,0,6.28,3.42,54.38,54.38,0,0,0,6.86,2.36c1.88.52,3.93,1,6.48,1.44s5.18.93,7.8,1.16c1.09.09,2.08.14,3,.14a21.54,21.54,0,0,0,4.94-.52,15,15,0,0,0,2.89-1c.15-.14.24-.23.33-.33s.18-.33.25-.49l0-.09c.83-3.7,0-7.49-.79-11.15l-.08-.35c-.84-3.89-1.76-7.62-2.87-12.09a232.1,232.1,0,0,1-5.1-24.24c-.31-2.37-.53-4.66-.68-6.4L86.63,165l-.19-2.18c-.33-3.84-.73-8.31-1.21-12.74a201.18,201.18,0,0,0-4.05-25.16c-.48-2.06-1-4.13-1.62-6.18-.25-.85-.51-1.7-.78-2.55s-.49-1.58-.72-2.37c-.45-1.53-.87-3.06-1.29-4.6s-.79-2.86-1.2-4.28a81.15,81.15,0,0,0-3.21-9.23,28,28,0,0,0-4.42-7.42l-.46-.37-.24-.11-.16-.07-.21-.07a4.16,4.16,0,0,0-.54-.1l-.24,0Z"/><polygon class="cls-14" points="60.19 130.54 60.19 130.54 60.19 130.54 60.19 130.54 60.19 130.54 60.19 130.54"/><path class="cls-13" d="M69,89.65h0a102.43,102.43,0,0,0-35.55,22.18,74.49,74.49,0,0,0-11.82,14.7,58.64,58.64,0,0,0-3.39,6.54,51.58,51.58,0,0,0-2.43,6.75,45.48,45.48,0,0,0-1.72,12c0,1.31,0,2.65.15,3.9.06.71.13,1.46.25,2.22s.27,1.51.44,2.18a16.94,16.94,0,0,0,.7,2.14c.07.17.15.35.22.52v-.43c0-.27,0-.53-.06-.79a16,16,0,0,1,.09-3,9.77,9.77,0,0,1,.29-1.44,6,6,0,0,1,.48-1.18,3.67,3.67,0,0,1,.73-.94,2.54,2.54,0,0,1,.93-.56,3.52,3.52,0,0,1,.47-.11l.46,0a4,4,0,0,1,1,.13,7.06,7.06,0,0,1,2.24,1,11.3,11.3,0,0,1,3.19,3.81,48.36,48.36,0,0,1,2.33,5l.13.3.07.16,0,.09c.63,1.48,1.28,3,2,4.47.8-.53,1.62-1.14,2.45-1.81a35.77,35.77,0,0,0,4.52-4.34,23,23,0,0,0,3.26-4.81,14.74,14.74,0,0,0,1-2.51,11.06,11.06,0,0,0,.4-2.51,10.62,10.62,0,0,0-.29-2.66,22.83,22.83,0,0,0-.89-2.92c-.25-.68-.51-1.35-.77-2l-.06-.16c-.48-1.24-1-2.63-1.42-4-.11-.39-.21-.78-.3-1.17a11,11,0,0,1-.25-2.75,5.8,5.8,0,0,1,.87-2.87,9.19,9.19,0,0,1,1.39-1.63l.06-.1a17.55,17.55,0,0,1,3.27-2.16l-.11,0,.18,0a31.38,31.38,0,0,1,7.21-2.41l.08-.06c1.49-.26,2.86-.46,4.06-.59a3,3,0,0,1,.44-.29,2.87,2.87,0,0,1,.37-.18l.28-.09a2.56,2.56,0,0,1,1.23,0,2.84,2.84,0,0,1,.62.23,4.79,4.79,0,0,1,1.13.83,8,8,0,0,1,1,1.18,13.68,13.68,0,0,1,1,1.67q.47.95.89,1.92a56.87,56.87,0,0,1,2.8,8.51c.67,2.71,1.26,5.67,1.81,9,.24,1.49.46,3,.68,4.47l.11.74c.18,1.29.38,2.63.52,4,.36,3.27.56,6.65.61,10.34,0,3,0,6.28-.15,10.23,0,1.39-.1,2.78-.16,4.17l0,1c-.06,1.45-.13,2.89-.2,4.33v.41c-.13,2.61-.27,5.32-.3,8a46.88,46.88,0,0,0,1.25,12.19,23.84,23.84,0,0,0,.77,2.4c.19.48.39,1,.61,1.44a2,2,0,0,0,.06-.35l0-.24a8.82,8.82,0,0,1,.16-1.09A5.27,5.27,0,0,1,71,211a2.48,2.48,0,0,1,.33-.45,2.45,2.45,0,0,1,.32-.3,2.18,2.18,0,0,1,.74-.36,2.43,2.43,0,0,1,.57-.07,3.69,3.69,0,0,1,1.32.28,9.32,9.32,0,0,1,2.24,1.34,21.92,21.92,0,0,1,2.39,2.16,74.22,74.22,0,0,1,5,5.9,77,77,0,0,0,5,6l.39.39a19.79,19.79,0,0,0,3.75-.49,14.34,14.34,0,0,0,2.9-1,4.09,4.09,0,0,0,.34-.33c.11-.19.18-.35.25-.5l0-.1c.83-3.69,0-7.45-.77-11.09l-.09-.43c-.84-3.85-1.76-7.6-2.88-12.09a230.63,230.63,0,0,1-5.09-24.23c-.26-1.92-.49-4.07-.68-6.39L86.67,165l-.19-2.18c-.36-4.05-.74-8.37-1.21-12.74a202.52,202.52,0,0,0-4.06-25.17c-.52-2.19-1.06-4.27-1.62-6.18-.25-.85-.51-1.7-.78-2.55s-.49-1.58-.72-2.37c-.44-1.53-.87-3.06-1.29-4.6l0-.17,0-.16c-.36-1.32-.73-2.64-1.11-4a82.12,82.12,0,0,0-3.22-9.23A30.56,30.56,0,0,0,69,89.65Z"/><path class="cls-13" d="M143.68,65.76a16.13,16.13,0,0,0-2.21.16,9.36,9.36,0,0,0-2.7.84,13.88,13.88,0,0,0-2.39,1.56c-.59.46-1.15,1-1.71,1.44l-.47.41A25.57,25.57,0,0,1,132,71.91a56.76,56.76,0,0,1-9.58,5c-1.28.54-2.78,1.14-5,2-1.77.67-3.54,1.33-5.32,2-4.47,1.56-9,2.79-12.87,3.78-.89.22-1.75.4-2.64.55l-1,.17-1.74.31a18.61,18.61,0,0,0-2.65.7l-.54.2c-.26.13-.52.27-.77.42a3.71,3.71,0,0,0-.44.33l-.48.43c-.13.21-.26.41-.38.62l.07.14.33.22c.38.25.77.5,1.14.76s.53.39.77.59l.12.1.11.1a27.84,27.84,0,0,1,2.81,2.29l.08.07A52.86,52.86,0,0,1,102.18,103c1.7,2.71,3.21,5.42,4.34,7.48,1.84,3.36,3.25,6,4.58,8.57,3.38,6.54,6.48,13.2,9.2,19.78,1.93,4.68,3.71,9.46,5.31,14.2s3.26,9.7,4.78,14.67l.06-.1C134,179.75,135.72,189,136,197.79c0,1.05,0,2.12,0,3.18,0,1.9,0,3.86.16,5.78a.76.76,0,0,0,.76.65h.1a.67.67,0,0,0,.26-.1.92.92,0,0,0,.24-.08l.16-.11c.21-.13.41-.27.61-.41l.09-.09.1-.09.09-.08c.38-.34.74-.73,1.06-1.07l.08-.09c.93-1,1.72-1.92,2.42-2.77a41.21,41.21,0,0,0,4.26-6.34,39.87,39.87,0,0,0,3-7,37.52,37.52,0,0,0,1.67-8,31.7,31.7,0,0,0-.37-8,37.19,37.19,0,0,0-2.23-7.61c-.48-1.21-1.05-2.47-1.68-3.74s-1.33-2.53-2-3.71c-1.48-2.64-3-5.18-4.28-7.42L138.34,147l-.07-.11-.06-.1c-4.92-8.32-10-16.92-14-25.92l-.77-1.79c-.64-1.52-1.31-3.21-2-5a12.51,12.51,0,0,1-1.84-.95,5.44,5.44,0,0,1-.88-.68,3.64,3.64,0,0,1-.57-.66,2.16,2.16,0,0,1-.31-.78,1.81,1.81,0,0,1,0-.77,2.37,2.37,0,0,1,.45-.87,5,5,0,0,1,.84-.83,11.24,11.24,0,0,1,2.38-1.4,25.07,25.07,0,0,1,3-1.07c1.39-.4,2.83-.74,4.22-1.07L129,105l2-.48a31,31,0,0,0,3.77-1.1,20.66,20.66,0,0,0,1.89-.83c.7-.34,1.39-.7,2.07-1.07a54.75,54.75,0,0,0,6.37-4.09,67.9,67.9,0,0,0,5.64-4.74,80.63,80.63,0,0,0,5.79-6.06,58,58,0,0,0,5.24-7c.29-.46.6-1,.91-1.51a21.06,21.06,0,0,0-2.44-3.87,22.8,22.8,0,0,0-5.2-4.69,23.07,23.07,0,0,0-6.6-3.07,17.41,17.41,0,0,0-4.8-.7Z"/><path class="cls-15" d="M50.19,64.87a.7.7,0,0,0-.31.43.76.76,0,0,0,.09.54l0,0,0-.05c2.43,5.33,4.49,10.81,6.92,16.14a87.55,87.55,0,0,0,4,7.87,67.29,67.29,0,0,0,4.39,6.58,69.29,69.29,0,0,0,10.47,11.1,71.59,71.59,0,0,0,12.75,8.65c5,2.68,10.37,4.8,15,8.17l-.15-.1a23.54,23.54,0,0,1,3.65,3.15.71.71,0,0,0,1,0,.7.7,0,0,0,.19-.51.74.74,0,0,0-.22-.5,22.35,22.35,0,0,0-3.12-2.76,38.78,38.78,0,0,0-3.44-2.33c-2.32-1.41-4.76-2.61-7.2-3.8s-4.81-2.35-7.14-3.69a71.26,71.26,0,0,1-6.32-4.08l.15.1A67.61,67.61,0,0,1,63,90.6a81.09,81.09,0,0,1-4.78-9l.08.17c-2.51-5.49-4.63-11.14-7.14-16.63a.66.66,0,0,0-.43-.31l-.17,0a.71.71,0,0,0-.38.11Z"/><path class="cls-15" d="M109.2,128.7a.71.71,0,0,0-.23,1,79.68,79.68,0,0,1,9.09,15.17l-.08-.17a81.61,81.61,0,0,1,4.18,11.2,57.11,57.11,0,0,1,1.49,6.53l0-.19a38.16,38.16,0,0,1,.47,10.08l0-.19a18.7,18.7,0,0,1-1.07,4.71,11.69,11.69,0,0,1-1.29,2.41,9.34,9.34,0,0,1-1.39,1.49l-.05,0,0,0,0,0h0l0,0,0,0a9,9,0,0,1-1.65,1,10.38,10.38,0,0,1-2.32.71,14.94,14.94,0,0,1-3.92.08l.19,0a13.16,13.16,0,0,1-3.19-.75,15.23,15.23,0,0,1-3.2-1.77,31.5,31.5,0,0,1-5.46-5.45h0l0,0h0c-2.12-2.59-4.09-5.29-6.44-7.69a22.74,22.74,0,0,0-3.77-3.14,14.69,14.69,0,0,0-4.44-2,14.38,14.38,0,0,0-2.81-.39,9.75,9.75,0,0,0-3.53.45,9.17,9.17,0,0,0-3.06,1.78,11.59,11.59,0,0,0-2.38,2.95.71.71,0,0,0,.62,1A16.87,16.87,0,0,1,76,166.19l.49-.52a6.5,6.5,0,0,1,.69-.68l.16-.17a3.71,3.71,0,0,1,.37-.3l.28-.17a7.32,7.32,0,0,1,3.3-1.44h0a11.54,11.54,0,0,1,2.6,0,13.64,13.64,0,0,1,3.3.79,15.55,15.55,0,0,1,3.17,1.76l0,0,0,0h.06A32,32,0,0,1,96,171l-.12-.14c2.16,2.62,4.16,5.39,6.54,7.81a22.21,22.21,0,0,0,3.75,3.12,14.26,14.26,0,0,0,4.41,1.92,16.08,16.08,0,0,0,5.34.29,10.67,10.67,0,0,0,4.37-1.49,9.79,9.79,0,0,0,2.95-3,13.54,13.54,0,0,0,1.68-4,23,23,0,0,0,.68-4.63,35.75,35.75,0,0,0-.08-4.84,52.92,52.92,0,0,0-1.59-9.15,79.42,79.42,0,0,0-5.32-14.24,78.5,78.5,0,0,0-8.45-13.79.75.75,0,0,0-.43-.31l-.17,0a.68.68,0,0,0-.38.11ZM84,162.86h0Zm36.4,17.87h0Z"/><path class="cls-15" d="M90.45,165.41h0Z"/><circle class="cls-15" cx="100.71" cy="174.57"/><circle class="cls-15" cx="100.76" cy="174.63"/><path class="cls-15" d="M81.32,162.9h0Z"/><polygon class="cls-15" points="90.46 165.42 90.45 165.41 90.45 165.41 90.46 165.42 90.46 165.42 90.46 165.42"/><polygon class="cls-15" points="90.48 165.44 90.48 165.43 90.48 165.44 90.48 165.44 90.48 165.44"/><path class="cls-15" d="M100.75,174.61h0l0-.05,0,0Z"/><polygon class="cls-15" points="120.34 180.74 120.35 180.73 120.34 180.74 120.34 180.74 120.34 180.74"/><path class="cls-15" d="M105.79,67.2q-.27.43-.56.85l.11.81h0V69c1.61,12.16,1.4,24.45,1.08,36.69-.07,2.52-.14,5-.2,7.57,0,1.65-.1,3.31-.13,5a40.79,40.79,0,0,0,.14,5,12.71,12.71,0,0,0,.39,2.2,4.05,4.05,0,0,0,.81,1.58.71.71,0,0,0,1.21-.5.73.73,0,0,0-.21-.5v0a3.33,3.33,0,0,1-.26-.45,8.26,8.26,0,0,1-.46-1.89,39.27,39.27,0,0,1-.18-6c0-.85.05-1.69.07-2.55,0-1.47.07-2.94.11-4.41.16-6.16.36-12.31.36-18.47a167.11,167.11,0,0,0-1.72-26.07,11.72,11.72,0,0,1-.58,1.06Z"/><path class="cls-15" d="M105.36,69v-.13s0,.09,0,.13Z"/><path class="cls-15" d="M107.43,125.73l-.08.05-.1,0a.71.71,0,0,0-.88.48,3,3,0,0,0,0,1.4,6.23,6.23,0,0,0,.6,1.54c.49.9,1.41,1.86,2.53,1.57a2,2,0,0,0,.74-.43,1.88,1.88,0,0,0,.49-.75,1.71,1.71,0,0,0,.06-.87,2.8,2.8,0,0,0-.31-.89A4.1,4.1,0,0,0,110,127a4.42,4.42,0,0,0-.61-.6,5.09,5.09,0,0,0-.7-.5,2.25,2.25,0,0,0-.73-.28l-.22,0a.65.65,0,0,0-.33.08Z"/><path class="cls-15" d="M78.72,162.19l-.18.08a10.57,10.57,0,0,0-1.74,1.15,14,14,0,0,0-2,2c-1.18,1.42-2.19,3-3.36,4.4l-.05.06.05-.06c-.26.32-.54.63-.83.94s-.77.75-1.15,1.14a.72.72,0,0,0,0,1,.71.71,0,0,0,1,0c.29-.3.6-.59.9-.88s.56-.58.83-.88c.46-.52.88-1.07,1.3-1.62s1-1.34,1.48-2c.25-.34.5-.67.77-1l.19-.23h0a13.66,13.66,0,0,1,2.31-2.22,9,9,0,0,1,1.72-.93.71.71,0,0,0-.11-1.31.75.75,0,0,0-.2,0l-.9.34Z"/><circle class="cls-15" cx="75.88" cy="166.35"/><path class="cls-15" d="M66.21,165l10.6,11.17L53.21,198.61l-10.6-11.17L66.21,165Z"/><path class="cls-16" d="M66.2,165,42.59,187.43l1,1.1,23.62-22.42-1-1.09h0Z"/><path class="cls-16" d="M44,188.87l7.28,7.69L44,188.82l-.06.05Z"/><path class="cls-4" d="M54.9,174.75h0a3.82,3.82,0,0,0-1,.13,4.24,4.24,0,0,0-1.15.5,9.45,9.45,0,0,0-2.38,2.4c-.34.44-.7.9-1.09,1.31a6.73,6.73,0,0,1-1.1.91,5.28,5.28,0,0,1-1.06.46,8,8,0,0,1-1.71.23h-.3a14.3,14.3,0,0,1-1.68-.09c-.13-.56-.24-1.17-.34-1.79a.69.69,0,0,0-.33-.43.72.72,0,0,0-.36-.1l-.19,0a.72.72,0,0,0-.43.33.77.77,0,0,0-.08.55c.06.39.13.79.21,1.19-.4-.07-.82-.13-1.24-.17s-.58,0-.88,0a5.34,5.34,0,0,0-1.47.18,3.64,3.64,0,0,0-1.12.53,2.77,2.77,0,0,0-.79.91,1.1,1.1,0,0,0-.13.32l1,.74a.5.5,0,0,0,.24-.21,3.18,3.18,0,0,1,.31-.45,2.83,2.83,0,0,1,.31-.24,2.78,2.78,0,0,1,.45-.2,5,5,0,0,1,1-.14,16.79,16.79,0,0,1,2.54.27,18.65,18.65,0,0,0,1.62,3.73c-.61-.46-1.19-.89-1.74-1.33a.66.66,0,0,0-.42-.14.74.74,0,0,0-.59.29.73.73,0,0,0,.15,1,48.52,48.52,0,0,0,5.9,4c1,.61,2.11,1.2,3.17,1.79.67.37,1.32.75,2,1.15.86.53,1.57.95,2.25,1.31a10.09,10.09,0,0,0,2.29.94,4.71,4.71,0,0,0,1.07.17H58a3,3,0,0,0,1-.18,1.9,1.9,0,0,0,.94-.79,4.41,4.41,0,0,0,.3-.62l.15-.33.08-.12.21-.1a3.69,3.69,0,0,1,.57-.07h.93a3.09,3.09,0,0,0,1.79-.43,2.38,2.38,0,0,0,.9-1.2,4.39,4.39,0,0,0,.2-.87l0-.31a1.76,1.76,0,0,1,.07-.21,1,1,0,0,1,.28-.05l.51,0h.13l.67,0a4,4,0,0,0,.88-.09,2.61,2.61,0,0,0,.85-.39,4.21,4.21,0,0,0,1.36-1.4,3.28,3.28,0,0,0,.35-.91,3.1,3.1,0,0,0,.06-.88,3.88,3.88,0,0,0-.51-1.63A11.38,11.38,0,0,0,66.88,181a31.61,31.61,0,0,0-4-2.77c-1-.58-2-1.17-3.21-1.8-.74-.38-1.53-.79-2.34-1.13a6.47,6.47,0,0,0-2.48-.58Z"/><path class="cls-15" d="M50.9,66.14c1-.54,1.13-2.46.18-4.28s-2.56-2.86-3.6-2.32S46.35,62,47.3,63.82s2.56,2.86,3.6,2.32Z"/><path class="cls-16" d="M48.82,59.88a6.1,6.1,0,0,1,1.36,2,8.88,8.88,0,0,1,.46,1.34,9.45,9.45,0,0,1,.23,1.2,6.7,6.7,0,0,1,0,1.71h0a1.86,1.86,0,0,0,.85-1.68,5.38,5.38,0,0,0-.66-2.63c-.74-1.43-1.95-2.44-3-2.47a3.39,3.39,0,0,1,.68.49Z"/><path class="cls-1" d="M75,0q-.8,0-1.6,0A36.84,36.84,0,0,0,68,.79a34,34,0,0,0-5.63,1.63,31.24,31.24,0,0,0-6,3.14A34.32,34.32,0,0,0,47.08,15a40.47,40.47,0,0,0-6.54,19.33A29.43,29.43,0,0,0,40.86,41c.71,4.46,2.5,8.65,4.23,12.71a.63.63,0,0,0,.31.31.41.41,0,0,0,.05.14.76.76,0,0,0,.45.34l.17,0a.84.84,0,0,0,.37-.1,29,29,0,0,0,3.27-1.75,29.37,29.37,0,0,0,2.87-2A31.71,31.71,0,0,0,57.25,46a82.34,82.34,0,0,0,5.88-8.38c.54-.85,1.09-1.69,1.64-2.53,1.24-1.9,2.33-3.45,3.43-4.89h0l0,0h0l0,0c.64-.81,1.31-1.64,2-2.45a17.87,17.87,0,0,1,1.37-1.34c1-.91,2.08-1.78,3.11-2.62l.13-.1.56-.46c1.58-1.28,3-2.44,4.39-3.67a38.8,38.8,0,0,0,4-4c.23-.27.44-.53.64-.79l1.06.52a45.31,45.31,0,0,1,6.91,3.85,24.37,24.37,0,0,1,4.31,4.19l.08.08h0c1.23,1.54,2.36,3.2,3.45,4.8l.38.56c.72,1.07,1.34,1.94,1.94,2.76.47.64,1,1.25,1.46,1.86l.51.62.36.46a15.28,15.28,0,0,0,3.33,3.42,4,4,0,0,0,1.1.51,2.3,2.3,0,0,0,.64.09,2.83,2.83,0,0,0,.63-.07,2.42,2.42,0,0,0,1.05-.61,2.58,2.58,0,0,0,.61-.9,6.06,6.06,0,0,0,.39-2.48,17.19,17.19,0,0,0-.32-2.87A39.19,39.19,0,0,0,111.13,27a33.07,33.07,0,0,0-8.21-13.17,31.44,31.44,0,0,0-2.84-2.61,26,26,0,0,0-3-2.1,25.37,25.37,0,0,0-6.61-2.68,31.86,31.86,0,0,0-4-.74,8.32,8.32,0,0,0-.61-1.09,8.74,8.74,0,0,0-1.83-2A11.51,11.51,0,0,0,79.08.39,19.65,19.65,0,0,0,75,0Z"/><path class="cls-3" d="M77.63,4a49.17,49.17,0,0,0-6.85,1.49,44.54,44.54,0,0,0-6.15,2.33A47.28,47.28,0,0,0,59,11a54.84,54.84,0,0,0-5.11,3.79C47.2,20.3,41.82,27.22,36.78,34.26c-1.56,2.18-3.09,4.39-4.61,6.59L29.86,44.2c-.84,1.22-1.68,2.43-2.56,3.61l.08-.11a37.24,37.24,0,0,1-2.61,3.1,27.7,27.7,0,0,1-2.93,2.67h0l0,0,0,0h0c-.37.28-.74.56-1.13.83a.3.3,0,0,0-.11.41.3.3,0,0,0,.41.11A32.5,32.5,0,0,0,27,49.64,67.31,67.31,0,0,0,31.55,44c2.62-3.54,5.12-7.15,7.7-10.71.85-1.17,1.71-2.34,2.58-3.49l-.11.15C46.19,24,51,18.22,56.91,13.65l0,0a53,53,0,0,1,5-3.42,43.59,43.59,0,0,1,5.49-2.8h0a43,43,0,0,1,4.94-1.75,43.77,43.77,0,0,1,5.51-1.18A.27.27,0,0,0,78,4.21.26.26,0,0,0,77.69,4ZM21.8,53.5h0l0,0,0,0Z"/><path class="cls-3" d="M67.64,27a38.82,38.82,0,0,0-8.39,8.55c-1.25,1.6-2.48,3.22-3.77,4.8-.65.8-1.31,1.58-2,2.33s-1.4,1.47-2.15,2.16l.11-.1a63.78,63.78,0,0,1-5.67,4.65,51.5,51.5,0,0,1-6.44,4l.17-.09a42.22,42.22,0,0,1-10.22,3.76l.14,0a38.63,38.63,0,0,1-3.86.63.74.74,0,0,0,.13,1.48,34.49,34.49,0,0,0,7.68-1.61,42.06,42.06,0,0,0,7.21-3.2A50.75,50.75,0,0,0,47.13,50c1-.8,2-1.64,3-2.51S52,45.75,52.9,44.83A73.6,73.6,0,0,0,59.07,37a51.45,51.45,0,0,1,6.38-7.61h0l0,0,0,0h0a22.78,22.78,0,0,1,2.42-1.93.23.23,0,0,0-.13-.43.23.23,0,0,0-.14,0Zm-2.17,2.33,0,0,0,0Z"/><path class="cls-3" d="M58.56,23.71a37.32,37.32,0,0,0-5.36,4.41c-.85.83-1.66,1.71-2.44,2.6s-1.55,1.87-2.27,2.85A.36.36,0,0,0,49,34c.88-1.21,1.8-2.39,2.78-3.52a43.81,43.81,0,0,1,3.27-3.38,31.68,31.68,0,0,1,3.77-3,.26.26,0,0,0,.06-.36.25.25,0,0,0-.21-.11.27.27,0,0,0-.15,0Zm-3.43,3.37,0,0,0,0Z"/><path class="cls-3" d="M56.78,6c-1,.51-1.92,1-2.86,1.58S52,8.75,51,9.36a63.11,63.11,0,0,0-5.55,4,50.47,50.47,0,0,0-4.87,4.45c-.78.82-1.53,1.68-2.24,2.57a32.33,32.33,0,0,0-2,2.77.5.5,0,0,0-.1.33.47.47,0,0,0,.17.32.49.49,0,0,0,.33.1.45.45,0,0,0,.32-.17c.53-.77,1.07-1.54,1.63-2.28s1.15-1.47,1.75-2.18a50,50,0,0,1,3.87-4l-.07.07a54.52,54.52,0,0,1,6.07-4.82A70.76,70.76,0,0,1,57,6.4a.24.24,0,0,0,.06-.33A.24.24,0,0,0,57,6h0a.26.26,0,0,0-.14,0Z"/><path class="cls-3" d="M84.72,14.54a.26.26,0,0,0,0,.36c1.74,1.1,3.58,2,5.33,3.09a22,22,0,0,1,2.53,1.83,26,26,0,0,1,2.2,2.11A52,52,0,0,1,99,27.19c1.26,1.79,2.48,3.62,3.73,5.41a31.51,31.51,0,0,0,3.91,4.73,13.8,13.8,0,0,0,2.33,1.81,13.18,13.18,0,0,0,1.37.74,9.38,9.38,0,0,0,1.47.51.43.43,0,0,0,.25-.82,17.5,17.5,0,0,1-2.12-1.08,18.15,18.15,0,0,1-3.41-2.87,46.91,46.91,0,0,1-4.11-5.4c-1.48-2.16-2.94-4.34-4.59-6.39A34.48,34.48,0,0,0,95.21,21a21.64,21.64,0,0,0-3-2.49C90,17,87.45,16,85.16,14.56l.06,0-.14-.09a.32.32,0,0,0-.17-.05.24.24,0,0,0-.19.09Zm10,7.31,0,0,0,0Z"/><path class="cls-3" d="M85.88,10a18.84,18.84,0,0,1-1.3,3.09h0a26.73,26.73,0,0,1-4.12,5.56c-1.52,1.59-3.16,3.06-4.83,4.49s-3.39,2.88-5,4.39a38.54,38.54,0,0,0-4.45,4.77c-.35.45-.67.91-1,1.37L64,35.29l-2.19,3.1a80.41,80.41,0,0,1-6.66,8.37A42.19,42.19,0,0,1,51.67,50a34.46,34.46,0,0,1-4,2.89c-.73.44-1.48.85-2.24,1.26l-2.54,1.37a29.77,29.77,0,0,1-5.24,2.34c-.56.16-1.12.3-1.7.41a.49.49,0,0,0,.16,1,16.57,16.57,0,0,0,4-1A35.23,35.23,0,0,0,44,56.46l1.79-1c.62-.33,1.24-.65,1.84-1a33.85,33.85,0,0,0,3.23-2.11A48.75,48.75,0,0,0,61.05,41.72c1.52-2.07,3-4.19,4.43-6.3.68-1,1.34-2,2.07-2.91s1.36-1.65,2.1-2.44h0c3-3.23,6.5-6,9.62-9.2a37.65,37.65,0,0,0,4.2-4.95,21.76,21.76,0,0,0,2.86-5.76.24.24,0,0,0-.14-.31h-.08a.24.24,0,0,0-.23.15Zm-5.4,8.62,0,0,0,0ZM55.11,46.79l0,0,0,0Zm-7.34,6.06-.06,0,.06,0Z"/><path class="cls-5" d="M48.74,57.34a.35.35,0,0,0-.24.43,25,25,0,0,0,1.41,4.38,10.84,10.84,0,0,0,.54,1.05,9.12,9.12,0,0,0,.71,1A6.13,6.13,0,0,0,52,65a4.46,4.46,0,0,0,1.1.71.71.71,0,0,0,.87-1.12c-.46-.47-.92-.92-1.37-1.39s-1-1.07-1.4-1.64c-.29-.39-.57-.79-.83-1.21A10.64,10.64,0,0,1,49.65,59h0a9.52,9.52,0,0,1-.48-1.45.35.35,0,0,0-.34-.25Zm2.43,4.22.1.13-.1-.13Z"/><path class="cls-5" d="M45.48,58.88a4.11,4.11,0,0,0-.79.57,3.82,3.82,0,0,0-.65.75.45.45,0,0,0,.78.46l.08-.11a3,3,0,0,1,.42-.43,3.28,3.28,0,0,1,.5-.3,3.72,3.72,0,0,1,.78-.21,3.87,3.87,0,0,1,.71,0,3.44,3.44,0,0,1,.64.18,4.08,4.08,0,0,1,.69.41,5.36,5.36,0,0,1,.78.82.48.48,0,0,0,.81-.47,2.47,2.47,0,0,0-.34-.85,2.82,2.82,0,0,0-.74-.75,2.86,2.86,0,0,0-.9-.4,3.75,3.75,0,0,0-2.76.34Zm1.2.72h0Zm-.11,0h0Zm-.68.18h0Zm-.59.35,0,0,0,0Z"/></g></g></svg>