<svg width="1440" height="210" viewBox="0 0 1440 210" fill="none" xmlns="http://www.w3.org/2000/svg">
<path fill-rule="evenodd" clip-rule="evenodd" d="M0 0L56.5104 8.58537C238.194 30.0488 255.816 35.0569 401.649 65.1057C547.483 95.1545 729.167 146.309 875 159.187C1020.83 172.065 1166.67 116.976 1312.5 95.5122C1458.33 74.0488 1604.17 56.878 1677.08 48.2927L1750 39.7073V220H1677.08C1604.17 220 1458.33 220 1312.5 220C1166.67 220 1020.83 220 875 220C729.167 220 583.333 220 437.5 220C291.667 220 145.833 220 72.9167 220H0V0Z" fill="#F5F5F5"/>
</svg>
